<svg class="inp-mobile" version="1.1" id="Layer_1" xmlns="http://www.w3.org/2000/svg" x="0" y="0" viewBox="0 0 296.6 220.2" style="enable-background:new 0 0 296.6 220.2" xml:space="preserve" data-title="A diagram of the INP thresholds. An INP at or below 200 milliseconds is considered good. Between 200 and 500 milliseconds suggests a page's responsiveness needs improvement. Anything over 500 milliseconds means that a page's responsiveness is poor."><style>.st0{fill:#2979FF} .st1{fill-rule:evenodd;clip-rule:evenodd;fill:#0CCE6B} .st2{fill:#191919} .st3{fill-rule:evenodd;clip-rule:evenodd;fill:#FFA400} .st4{fill-rule:evenodd;clip-rule:evenodd;fill:#FF4E42}</style><path class="st0" d="M83.3 63V0h11.9v63H83.3zm26.3 0V0h13.8l25.3 42.2h.7l-.7-12.1V0h11.8v63H148l-26.8-44.6h-.7l.7 12.1V63h-11.6zm65.4 0V0h22.2c4.1 0 7.7.8 10.9 2.5s5.8 4 7.7 7 2.9 6.4 2.9 10.4c0 3.9-1 7.4-2.9 10.4s-4.5 5.4-7.7 7c-3.2 1.7-6.9 2.5-10.9 2.5h-15.6V28.6h15.9c2.1 0 3.8-.4 5.2-1.2s2.5-1.9 3.2-3.2c.7-1.3 1.1-2.8 1.1-4.3s-.4-2.9-1.1-4.2c-.7-1.3-1.8-2.3-3.2-3.2s-3.1-1.2-5.2-1.2h-10.7V63H175z"></path><path class="st1" d="M0 137.1h96v38.4H0v-38.4z"></path><path class="st2" d="M34 161c-.6 0-1.2-.1-1.8-.3-.5-.2-1-.5-1.4-.9-.4-.4-.7-.9-1-1.4-.2-.6-.3-1.1-.3-1.8 0-.6.1-1.2.3-1.8.2-.6.6-1 1-1.4.4-.4.9-.7 1.4-.9.5-.2 1.1-.3 1.8-.3s1.3.1 1.8.3c.6.2 1 .6 1.4 1l-.9.9c-.2-.2-.4-.4-.6-.5-.2-.1-.5-.3-.8-.3-.3-.1-.6-.1-.9-.1-.4 0-.8.1-1.2.2-.4.1-.7.4-1 .6-.3.3-.5.6-.7 1-.2.4-.2.8-.2 1.3s.1.9.2 1.3c.2.4.4.7.7 1 .3.3.6.5 1 .7.4.1.8.2 1.2.2.4 0 .8-.1 1.1-.2.3-.1.6-.3.9-.5.3-.2.5-.5.6-.8.2-.3.3-.6.3-1H34v-1.2h4.2v.7c0 .6-.1 1.2-.3 1.7-.2.5-.5.9-.9 1.3s-.8.6-1.3.8c-.5.3-1.1.4-1.7.4zm9.5 0c-.6 0-1.2-.1-1.8-.3-.5-.2-1-.5-1.4-1-.4-.4-.7-.9-.9-1.4-.2-.5-.3-1.1-.3-1.8 0-.6.1-1.2.3-1.8.2-.5.5-1 .9-1.4.4-.4.9-.7 1.4-1 .5-.2 1.1-.3 1.8-.3.6 0 1.2.1 1.8.3.5.2 1 .6 1.4 1 .4.4.7.9.9 1.4.2.5.3 1.1.3 1.8 0 .6-.1 1.2-.3 1.8-.2.5-.5 1-.9 1.4-.4.4-.9.7-1.4 1-.5.2-1.1.3-1.8.3zm0-1.2c.6 0 1.1-.1 1.6-.4.5-.3.8-.7 1.1-1.1.3-.5.4-1.1.4-1.7 0-.6-.1-1.2-.4-1.7-.3-.5-.7-.9-1.1-1.1-.5-.3-1-.4-1.6-.4-.6 0-1.1.1-1.6.4-.5.3-.8.7-1.1 1.1-.3.5-.4 1-.4 1.7 0 .6.1 1.2.4 1.7.3.5.7.9 1.1 1.1.5.3 1 .4 1.6.4zm9.9 1.2c-.6 0-1.2-.1-1.8-.3-.5-.2-1-.5-1.4-1-.4-.4-.7-.9-.9-1.4-.2-.5-.3-1.1-.3-1.8 0-.6.1-1.2.3-1.8.2-.5.5-1 .9-1.4.4-.4.9-.7 1.4-1 .5-.2 1.1-.3 1.8-.3.6 0 1.2.1 1.8.3.5.2 1 .6 1.4 1 .4.4.7.9.9 1.4.2.5.3 1.1.3 1.8 0 .6-.1 1.2-.3 1.8-.2.5-.5 1-.9 1.4-.4.4-.9.7-1.4 1-.6.2-1.2.3-1.8.3zm0-1.2c.6 0 1.1-.1 1.6-.4.5-.3.8-.7 1.1-1.1.3-.5.4-1.1.4-1.7 0-.6-.1-1.2-.4-1.7-.3-.5-.7-.9-1.1-1.1-.5-.3-1-.4-1.6-.4-.6 0-1.1.1-1.6.4-.5.3-.8.7-1.1 1.1-.3.5-.4 1-.4 1.7 0 .6.1 1.2.4 1.7.3.5.7.9 1.1 1.1.5.3 1 .4 1.6.4zm6 1.1v-8.6h2.8c.9 0 1.7.2 2.3.5.7.4 1.2.9 1.5 1.5.4.6.5 1.4.5 2.2 0 .8-.2 1.6-.5 2.2-.4.6-.9 1.2-1.5 1.5-.6.4-1.4.5-2.3.5h-2.8zm1.3-1.3h1.4c.6 0 1.2-.1 1.7-.4.5-.3.8-.6 1.1-1 .2-.5.4-1 .4-1.6 0-.6-.1-1.2-.4-1.6-.2-.5-.6-.8-1.1-1-.5-.3-1-.4-1.7-.4h-1.4v6z"></path><path class="st3" d="M96 137.1h105.6v38.4H96v-38.4z"></path><path class="st2" d="M130.8 153.9v-8.6h1.6l3.9 6.3h.1l-.1-1.7v-4.7h1.3v8.6h-1.4l-4.1-6.6h-.1l.1 1.7v5h-1.3zm8.7 0v-8.6h5.2v1.2h-3.9v6.1h3.9v1.2h-5.2zm.7-3.7V149h4.1v1.2h-4.1zm6.2 3.7v-8.6h5.2v1.2h-3.9v6.1h3.9v1.2h-5.2zm.7-3.7V149h4.1v1.2h-4.1zm6.1 3.7v-8.6h2.8c.9 0 1.7.2 2.3.5.7.4 1.2.9 1.5 1.5.4.6.5 1.4.5 2.2s-.2 1.6-.5 2.2c-.4.6-.9 1.2-1.5 1.5-.6.4-1.4.5-2.3.5h-2.8zm1.3-1.3h1.4c.6 0 1.2-.1 1.7-.4.5-.2.8-.6 1.1-1 .2-.5.4-1 .4-1.6 0-.6-.1-1.2-.4-1.6-.2-.5-.6-.8-1.1-1-.5-.2-1-.4-1.7-.4h-1.4v6zm9.9 1.4c-.5 0-.9-.1-1.3-.3-.4-.2-.8-.4-1.1-.8-.3-.4-.5-.8-.7-1.3l1.2-.5c.1.5.3.9.7 1.2.3.3.7.5 1.2.5.3 0 .5 0 .8-.1.2-.1.4-.2.6-.4s.2-.4.2-.7c0-.3-.1-.5-.2-.7-.1-.2-.3-.3-.6-.5s-.6-.3-1-.5l-.5-.2c-.2-.1-.5-.2-.7-.3-.2-.1-.5-.3-.7-.5-.2-.2-.4-.4-.5-.7-.1-.3-.2-.6-.2-.9 0-.4.1-.8.3-1.2.2-.4.5-.6.9-.8.4-.2.9-.3 1.4-.3.6 0 1 .1 1.4.3.4.2.7.4.9.7.2.3.4.5.4.8l-1.2.5c0-.2-.1-.3-.2-.5s-.3-.3-.5-.4c-.2-.1-.4-.2-.8-.2-.2 0-.5.1-.7.2-.2.1-.4.2-.5.4-.1.2-.2.3-.2.6s.1.6.4.8c.3.2.6.4 1.1.5l.6.2c.3.1.6.2.8.3.3.1.5.3.7.5.2.2.4.4.5.7.1.3.2.6.2 1s-.1.8-.3 1.2c-.2.3-.4.6-.7.8-.3.2-.6.3-.9.4s-.5.2-.8.2zM107 167.9v-8.6h1.3v8.6H107zm3.2 0v-8.6h1.8l2.5 6.5h.1l2.5-6.5h1.8v8.6h-1.3V163l.1-1.5h-.1l-2.5 6.4h-1l-2.5-6.4h-.1l.1 1.5v4.9h-1.4zm10.6 0v-8.6h3c.5 0 1 .1 1.4.3.4.2.8.5 1 .9.3.4.4.9.4 1.4 0 .5-.1 1-.4 1.4-.2.4-.6.7-1 .9-.4.2-.9.3-1.4.3h-2.2v-1.2h2.3c.3 0 .6-.1.8-.2.2-.1.4-.3.5-.5.1-.2.2-.4.2-.7 0-.2-.1-.4-.2-.7-.1-.2-.3-.4-.5-.5-.2-.1-.5-.2-.8-.2h-1.7v7.3h-1.4zm7.2 0v-8.6h3c.5 0 1 .1 1.4.3.4.2.7.5 1 .9.2.4.4.8.4 1.4 0 .3-.1.7-.2 1s-.3.6-.6.8c-.3.2-.6.4-1 .6-.4.1-.8.2-1.2.2h-2.1v-1.2h2.3c.3 0 .5-.1.7-.2.2-.1.4-.3.5-.5.1-.2.2-.5.2-.7 0-.2-.1-.5-.2-.7-.1-.2-.3-.4-.5-.5-.2-.1-.5-.2-.8-.2h-1.7v7.4H128zm2-4h1.5l2.7 3.9v.1h-1.5l-2.7-4zm9.3 4.1c-.6 0-1.2-.1-1.8-.3-.5-.2-1-.5-1.4-1-.4-.4-.7-.9-.9-1.4-.2-.5-.3-1.1-.3-1.8s.1-1.2.3-1.8c.2-.5.5-1 .9-1.4.4-.4.9-.7 1.4-1 .5-.2 1.1-.3 1.8-.3.6 0 1.2.1 1.8.3.5.2 1 .6 1.4 1 .4.4.7.9.9 1.4.2.5.3 1.1.3 1.8s-.1 1.2-.3 1.8c-.2.5-.5 1-.9 1.4-.4.4-.9.7-1.4 1-.6.2-1.2.3-1.8.3zm0-1.2c.6 0 1.1-.1 1.6-.4.5-.3.8-.7 1.1-1.1.3-.5.4-1.1.4-1.7 0-.6-.1-1.2-.4-1.7-.3-.5-.7-.9-1.1-1.1-.5-.3-1-.4-1.6-.4-.6 0-1.1.1-1.6.4-.5.3-.8.7-1.1 1.1-.3.5-.4 1-.4 1.7 0 .6.1 1.2.4 1.7.3.5.7.9 1.1 1.1.5.3 1 .4 1.6.4zm7.9 1.1-3-8.6h1.4l1.9 5.7.3 1h.1l.3-1 2-5.7h1.4l-3.1 8.6h-1.3zm5.6 0v-8.6h5.2v1.2h-3.9v6.1h3.9v1.2h-5.2zm.7-3.7V163h4.1v1.2h-4.1zm6.2 3.7v-8.6h1.8l2.5 6.5h.1l2.5-6.5h1.8v8.6H167V163l.1-1.5h-.1l-2.5 6.4h-1l-2.5-6.4h-.1l.1 1.5v4.9h-1.3zm10.6 0v-8.6h5.2v1.2h-3.9v6.1h3.9v1.2h-5.2zm.7-3.7V163h4.1v1.2H171zm6.1 3.7v-8.6h1.6l3.9 6.3h.1l-.1-1.7v-4.7h1.3v8.6h-1.4l-4.1-6.6h-.1l.1 1.7v5h-1.3zm10.5 0V160h1.3v7.9h-1.3zm-2.4-7.4v-1.2h6.1v1.2h-6.1z"></path><path class="st4" d="M200.6 137.1h96v38.4h-96v-38.4z"></path><path class="st2" d="M232.5 160.9v-8.6h3c.5 0 1 .1 1.4.3.4.2.8.5 1 .9.3.4.4.9.4 1.4 0 .5-.1 1-.4 1.4-.2.4-.6.7-1 .9-.4.2-.9.3-1.4.3h-2.2v-1.2h2.3c.3 0 .6-.1.8-.2.2-.1.4-.3.5-.5.1-.2.2-.4.2-.7 0-.2-.1-.4-.2-.7-.1-.2-.3-.4-.5-.5-.2-.1-.5-.2-.8-.2h-1.7v7.3h-1.4zm11 .1c-.6 0-1.2-.1-1.8-.3-.5-.2-1-.5-1.4-1-.4-.4-.7-.9-.9-1.4-.2-.5-.3-1.1-.3-1.8s.1-1.2.3-1.8c.2-.5.5-1 .9-1.4.4-.4.9-.7 1.4-1 .5-.2 1.1-.3 1.8-.3.6 0 1.2.1 1.8.3.5.2 1 .6 1.4 1 .4.4.7.9.9 1.4.2.5.3 1.1.3 1.8s-.1 1.2-.3 1.8c-.2.5-.5 1-.9 1.4-.4.4-.9.7-1.4 1-.5.2-1.1.3-1.8.3zm0-1.2c.6 0 1.1-.1 1.6-.4.5-.3.8-.7 1.1-1.1.3-.5.4-1.1.4-1.7 0-.6-.1-1.2-.4-1.7-.3-.5-.7-.9-1.1-1.1-.5-.3-1-.4-1.6-.4-.6 0-1.1.1-1.6.4-.5.3-.8.7-1.1 1.1-.3.5-.4 1-.4 1.7 0 .6.1 1.2.4 1.7.3.5.7.9 1.1 1.1.6.3 1.1.4 1.6.4zm9.9 1.2c-.6 0-1.2-.1-1.8-.3-.5-.2-1-.5-1.4-1-.4-.4-.7-.9-.9-1.4-.2-.5-.3-1.1-.3-1.8s.1-1.2.3-1.8c.2-.5.5-1 .9-1.4.4-.4.9-.7 1.4-1 .5-.2 1.1-.3 1.8-.3.6 0 1.2.1 1.8.3.5.2 1 .6 1.4 1 .4.4.7.9.9 1.4.2.5.3 1.1.3 1.8s-.1 1.2-.3 1.8c-.2.5-.5 1-.9 1.4-.4.4-.9.7-1.4 1-.6.2-1.1.3-1.8.3zm0-1.2c.6 0 1.1-.1 1.6-.4.5-.3.8-.7 1.1-1.1.3-.5.4-1.1.4-1.7 0-.6-.1-1.2-.4-1.7-.3-.5-.7-.9-1.1-1.1-.5-.3-1-.4-1.6-.4-.6 0-1.1.1-1.6.4-.5.3-.8.7-1.1 1.1-.3.5-.4 1-.4 1.7 0 .6.1 1.2.4 1.7.3.5.7.9 1.1 1.1.5.3 1 .4 1.6.4zm6 1.1v-8.6h3c.5 0 1 .1 1.4.3.4.2.7.5 1 .9.2.4.4.8.4 1.4 0 .3-.1.7-.2 1s-.3.6-.6.8c-.3.2-.6.4-1 .6-.4.1-.8.2-1.2.2h-2.1v-1.2h2.3c.3 0 .5-.1.7-.2.2-.1.4-.3.5-.5.1-.2.2-.5.2-.7 0-.2-.1-.5-.2-.7-.1-.2-.3-.4-.5-.5-.2-.1-.5-.2-.8-.2h-1.7v7.4h-1.2zm2-4h1.5l2.7 3.9v.1H264l-2.6-4zM178.1 219.9c-.5 0-1-.1-1.5-.3-.5-.2-1-.5-1.4-1-.4-.4-.7-1-.8-1.7l1.5-.6c.1.6.4 1 .8 1.4.4.4.9.5 1.4.5.6 0 1.1-.2 1.5-.6.4-.4.6-.9.6-1.5s-.2-1.1-.6-1.5c-.4-.4-.9-.6-1.5-.6-.4 0-.7.1-1 .2-.3.1-.5.4-.7.6l-1.7-.8.7-5.5h5.9v1.6h-4.5l-.4 2.9h.1c.2-.2.5-.3.8-.5.3-.1.7-.2 1.2-.2.6 0 1.2.2 1.7.5s1 .7 1.3 1.3c.3.5.5 1.2.5 1.9s-.2 1.3-.5 1.9c-.3.6-.8 1-1.3 1.3-.7.5-1.4.7-2.1.7zm9.9 0c-.7 0-1.3-.1-1.9-.4-.5-.3-1-.7-1.4-1.2-.4-.5-.7-1.1-.9-1.8-.2-.7-.3-1.4-.3-2.2 0-.8.1-1.6.3-2.2.2-.7.5-1.3.9-1.8s.9-.9 1.4-1.2c.6-.3 1.2-.5 1.9-.5s1.3.2 1.9.5c.6.3 1 .7 1.4 1.2.4.5.7 1.1.9 1.8.2.7.3 1.4.3 2.2 0 .8-.1 1.6-.3 2.2-.2.7-.5 1.3-.9 1.8s-.9.9-1.4 1.2c-.6.2-1.2.4-1.9.4zm.1-1.7c.6 0 1-.2 1.5-.5.4-.4.7-.9 1-1.5.2-.6.3-1.3.3-2.1s-.1-1.5-.3-2.1c-.2-.6-.5-1.1-1-1.5-.4-.4-.9-.5-1.5-.5s-1.1.2-1.5.5c-.4.4-.7.8-.9 1.5-.2.6-.3 1.3-.3 2.1s.1 1.5.3 2.1c.2.6.5 1.1.9 1.5.4.3.9.5 1.5.5zm10.5 1.7c-.7 0-1.3-.1-1.9-.4-.5-.3-1-.7-1.4-1.2-.4-.5-.7-1.1-.9-1.8-.2-.7-.3-1.4-.3-2.2 0-.8.1-1.6.3-2.2.2-.7.5-1.3.9-1.8s.9-.9 1.4-1.2c.6-.3 1.2-.5 1.9-.5s1.3.2 1.9.5c.6.3 1 .7 1.4 1.2.4.5.7 1.1.9 1.8.2.7.3 1.4.3 2.2 0 .8-.1 1.6-.3 2.2-.2.7-.5 1.3-.9 1.8s-.9.9-1.4 1.2c-.6.2-1.2.4-1.9.4zm0-1.7c.6 0 1-.2 1.5-.5.4-.4.7-.9 1-1.5.2-.6.3-1.3.3-2.1s-.1-1.5-.3-2.1c-.2-.6-.5-1.1-1-1.5-.4-.4-.9-.5-1.5-.5s-1.1.2-1.5.5c-.4.4-.7.8-.9 1.5-.2.6-.3 1.3-.3 2.1s.1 1.5.3 2.1c.2.6.5 1.1.9 1.5.4.3.9.5 1.5.5zm10 1.4v-8.2h1.6v1.1h.1c.2-.3.4-.5.6-.7.3-.2.6-.4.9-.5.3-.1.7-.2 1-.2.6 0 1.1.1 1.5.4.4.3.7.7.9 1.1.3-.4.6-.8 1.1-1.1.5-.3 1-.5 1.7-.5 1 0 1.7.3 2.1.9.5.6.7 1.4.7 2.3v5.2h-1.7v-4.9c0-.7-.1-1.1-.4-1.4-.3-.3-.7-.5-1.2-.5-.4 0-.7.1-1 .3-.3.2-.5.5-.7.9-.2.4-.2.8-.2 1.2v4.4h-1.7v-4.9c0-.7-.1-1.1-.4-1.4-.3-.3-.7-.5-1.2-.5-.4 0-.7.1-1 .3-.3.2-.5.5-.7.9-.2.4-.2.8-.2 1.2v4.4h-1.8zm17.2.3c-.6 0-1.2-.1-1.7-.3-.5-.2-.9-.5-1.2-.8-.3-.3-.5-.7-.7-1.1l1.5-.7c.2.4.5.8.8 1 .4.2.8.3 1.2.3.4 0 .8-.1 1.1-.2.3-.2.5-.4.5-.8 0-.2-.1-.4-.2-.6-.1-.1-.3-.3-.6-.4-.2-.1-.5-.2-.8-.2l-1-.2c-.4-.1-.8-.3-1.1-.5-.3-.2-.6-.5-.8-.8-.2-.3-.3-.7-.3-1.1 0-.5.1-.9.4-1.3.3-.4.7-.6 1.1-.8.5-.2 1-.3 1.6-.3.5 0 1 .1 1.4.2.4.1.8.3 1.1.6.3.3.6.6.8 1l-1.5.7c-.2-.4-.4-.6-.7-.8-.3-.1-.6-.2-1-.2s-.7.1-1 .2c-.3.2-.4.4-.4.6 0 .3.1.5.4.7.2.2.5.3.9.4l1.2.3c.8.2 1.4.5 1.8.9.4.4.6.9.6 1.5 0 .5-.2 1-.5 1.4-.3.4-.7.7-1.2.9-.6.2-1.1.4-1.7.4zM69 220v-1.6s.2-.1.4-.4c.2-.2.5-.5.8-.9l1.1-1.1 1-1c.3-.3.5-.6.7-.8.3-.3.5-.6.7-.8.2-.2.3-.5.4-.7.1-.2.1-.5.1-.8 0-.3-.1-.5-.2-.8-.1-.3-.3-.4-.6-.6-.3-.1-.6-.2-1-.2s-.7.1-1 .2c-.3.1-.5.3-.6.6-.1.2-.3.4-.3.7l-1.5-.6c.1-.3.2-.5.4-.8.2-.3.4-.5.7-.8.3-.3.6-.5 1-.6.4-.2.9-.3 1.4-.2.7 0 1.3.2 1.9.5.5.3.9.7 1.2 1.2.3.5.4 1 .4 1.6 0 .5-.1.9-.2 1.3-.2.4-.4.8-.7 1.2-.3.4-.5.7-.8 1l-.5.5c-.2.2-.4.5-.7.7l-.7.7-.6.6-.4.4h4.8v1.6H69zm13.2.2c-.7 0-1.3-.1-1.9-.4-.5-.3-1-.7-1.4-1.2-.4-.5-.7-1.1-.9-1.8-.2-.7-.3-1.4-.3-2.2 0-.8.1-1.6.3-2.2.2-.7.5-1.3.9-1.8s.9-.9 1.4-1.2c.6-.3 1.2-.5 1.9-.5s1.3.2 1.9.5c.6.3 1 .7 1.4 1.2.4.5.7 1.1.9 1.8.2.7.3 1.4.3 2.2 0 .8-.1 1.6-.3 2.2-.2.7-.5 1.3-.9 1.8s-.9.9-1.4 1.2c-.6.3-1.2.4-1.9.4zm0-1.6c.6 0 1-.2 1.5-.5.4-.4.7-.9 1-1.5.2-.6.3-1.3.3-2.1s-.1-1.5-.3-2.1c-.2-.6-.5-1.1-1-1.5-.4-.4-.9-.5-1.5-.5s-1.1.2-1.5.5c-.4.4-.7.8-.9 1.5-.2.6-.3 1.3-.3 2.1s.1 1.5.3 2.1c.2.6.5 1.1.9 1.5.4.3.9.5 1.5.5zm10.5 1.6c-.7 0-1.3-.1-1.9-.4-.5-.3-1-.7-1.4-1.2-.4-.5-.7-1.1-.9-1.8-.2-.7-.3-1.4-.3-2.2 0-.8.1-1.6.3-2.2.2-.7.5-1.3.9-1.8s.9-.9 1.4-1.2c.6-.3 1.2-.5 1.9-.5s1.3.2 1.9.5c.6.3 1 .7 1.4 1.2.4.5.7 1.1.9 1.8.2.7.3 1.4.3 2.2 0 .8-.1 1.6-.3 2.2-.2.7-.5 1.3-.9 1.8s-.9.9-1.4 1.2c-.6.3-1.2.4-1.9.4zm0-1.6c.6 0 1-.2 1.5-.5.4-.4.7-.9 1-1.5.2-.6.3-1.3.3-2.1s-.1-1.5-.3-2.1c-.2-.6-.5-1.1-1-1.5-.4-.4-.9-.5-1.5-.5s-1.1.2-1.5.5c-.4.4-.7.8-.9 1.5-.2.6-.3 1.3-.3 2.1s.1 1.5.3 2.1c.2.6.5 1.1.9 1.5.5.3 1 .5 1.5.5zm10 1.4v-8.2h1.6v1.1h.1c.2-.3.4-.5.6-.7.3-.2.6-.4.9-.5.3-.1.7-.2 1-.2.6 0 1.1.1 1.5.4.4.3.7.7.9 1.1.3-.4.6-.8 1.1-1.1.5-.3 1-.5 1.7-.5 1 0 1.7.3 2.1.9.5.6.7 1.4.7 2.3v5.2h-1.7v-4.9c0-.7-.1-1.1-.4-1.4-.3-.3-.7-.5-1.2-.5-.4 0-.7.1-1 .3-.3.2-.5.5-.7.9-.2.4-.2.8-.2 1.2v4.4H108v-4.9c0-.7-.1-1.1-.4-1.4-.3-.3-.7-.5-1.2-.5-.4 0-.7.1-1 .3-.3.2-.5.5-.7.9-.2.4-.2.8-.2 1.2v4.4h-1.8zm17.2.2c-.6 0-1.2-.1-1.7-.3-.5-.2-.9-.5-1.2-.8-.3-.3-.5-.7-.7-1.1l1.5-.7c.2.4.5.8.8 1 .4.2.8.3 1.2.3.4 0 .8-.1 1.1-.2.3-.2.5-.4.5-.8 0-.2-.1-.4-.2-.6-.1-.1-.3-.3-.6-.4-.2-.1-.5-.2-.8-.2l-1-.2c-.4-.1-.8-.3-1.1-.5-.3-.2-.6-.5-.8-.8-.2-.3-.3-.7-.3-1.1 0-.5.1-.9.4-1.3.3-.4.7-.6 1.1-.8.5-.2 1-.3 1.6-.3.5 0 1 .1 1.4.2.4.1.8.3 1.1.6.3.3.6.6.8 1l-1.5.7c-.2-.4-.4-.6-.7-.8-.3-.1-.6-.2-1-.2s-.7.1-1 .2c-.3.2-.4.4-.4.6 0 .3.1.5.4.7.2.2.5.3.9.4l1.2.3c.8.2 1.4.5 1.8.9.4.4.6.9.6 1.5 0 .5-.2 1-.5 1.4-.3.4-.7.7-1.2.9-.5.3-1.1.4-1.7.4zM42.4 96.3V82h1.7v14.3h-1.7zm4.6 0V86.1h1.6v1.5h.1c.3-.5.7-.9 1.3-1.3.6-.4 1.3-.5 2-.5 1.2 0 2.2.4 2.8 1.1.6.7 1 1.7 1 2.9v6.5h-1.7V90c0-1-.2-1.7-.7-2.1-.5-.4-1.1-.6-1.8-.6-.6 0-1.1.2-1.5.5-.4.3-.8.7-1 1.2-.2.5-.4 1-.4 1.6v5.7H47zm10-10.2h6v1.5h-6v-1.5zm1.8 7.5V83.3h1.7v10c0 .5.1.9.3 1.2s.6.4 1.1.4c.2 0 .4 0 .6-.1.2-.1.4-.2.5-.2v1.7c-.2.1-.4.1-.6.2-.2.1-.5.1-.8.1-.9 0-1.5-.2-2.1-.8-.5-.6-.7-1.3-.7-2.2zm10.3 3c-1 0-1.9-.2-2.6-.7-.8-.5-1.4-1.1-1.8-1.9-.4-.8-.6-1.7-.6-2.8 0-1 .2-1.9.6-2.7s1-1.5 1.7-2 1.6-.8 2.6-.8 1.9.2 2.6.7c.7.4 1.3 1.1 1.7 1.8.4.8.6 1.7.6 2.7v.5H65V90h7c0-.3-.1-.6-.2-.9-.1-.3-.3-.6-.5-.9-.2-.3-.6-.5-.9-.7-.4-.2-.8-.3-1.4-.3-.7 0-1.2.2-1.7.5s-.8.8-1.1 1.4c-.3.6-.4 1.2-.4 2 0 .9.2 1.6.5 2.2.3.6.8 1 1.3 1.3.5.3 1.1.4 1.7.4.8 0 1.4-.2 1.8-.5.5-.4.9-.8 1.2-1.3l1.4.7c-.4.8-1 1.4-1.7 1.9-.9.6-1.8.8-2.9.8zm6.7-.3V86.1h1.6v1.6h.1c.1-.4.4-.7.7-1 .3-.3.7-.5 1.1-.7s.8-.2 1.2-.2h.7c.2 0 .3.1.5.2v1.8c-.2-.1-.5-.2-.7-.2-.2-.1-.5-.1-.7-.1-.5 0-1 .1-1.4.4-.4.3-.7.7-1 1.1-.2.5-.4 1-.4 1.5v5.7h-1.7zm10.4.3c-.8 0-1.4-.1-2-.4s-1-.7-1.3-1.2c-.3-.5-.5-1.1-.5-1.8 0-.8.2-1.4.6-1.9.4-.5.9-.9 1.5-1.2.7-.3 1.4-.4 2.2-.4.4 0 .9 0 1.2.1s.7.2 1 .3c.3.1.5.2.7.3v-.6c0-.8-.3-1.4-.8-1.8-.5-.5-1.2-.7-2-.7-.6 0-1.1.1-1.6.4-.5.2-.9.6-1.1 1l-1.3-1c.3-.4.6-.7 1-1 .4-.3.9-.5 1.4-.7.5-.2 1.1-.2 1.6-.2 1.4 0 2.5.4 3.2 1.1.8.7 1.2 1.7 1.2 3v6.5h-1.6v-1.5h-.1c-.2.3-.4.6-.7.8s-.7.5-1.1.7c-.5.2-1 .2-1.5.2zm.1-1.5c.6 0 1.1-.1 1.6-.4.5-.3.9-.7 1.2-1.2.3-.5.5-1 .5-1.6-.3-.2-.7-.4-1.2-.5s-1-.2-1.5-.2c-1 0-1.7.2-2.1.6-.4.4-.7.9-.7 1.5s.2 1 .6 1.4 1 .4 1.6.4zm11.8 1.5c-1 0-1.9-.2-2.7-.7-.8-.5-1.4-1.1-1.8-1.9-.4-.8-.7-1.7-.7-2.8 0-1 .2-2 .7-2.8.4-.8 1.1-1.5 1.8-1.9.8-.5 1.7-.7 2.7-.7 1.1 0 2.1.3 2.8.8.7.5 1.3 1.2 1.6 2l-1.5.6c-.2-.6-.6-1.1-1.1-1.4-.5-.3-1.1-.5-1.8-.5-.6 0-1.2.2-1.7.5s-.9.8-1.2 1.4c-.3.6-.5 1.3-.5 2 0 .8.2 1.4.5 2 .3.6.7 1 1.2 1.4.5.3 1.1.5 1.7.5.7 0 1.3-.2 1.9-.5s.9-.8 1.2-1.4l1.5.6c-.3.8-.9 1.5-1.6 2s-1.9.8-3 .8zm5.5-10.5h6v1.5h-6v-1.5zm1.7 7.5V83.3h1.7v10c0 .5.1.9.3 1.2s.6.4 1.1.4c.2 0 .4 0 .6-.1.2-.1.4-.2.5-.2v1.7c-.2.1-.4.1-.6.2-.2.1-.5.1-.8.1-.9 0-1.5-.2-2.1-.8s-.7-1.3-.7-2.2zm6.5 2.7V86.1h1.7v10.2h-1.7zm.9-12c-.3 0-.6-.1-.9-.4s-.4-.5-.4-.9c0-.3.1-.6.4-.9.2-.2.5-.4.9-.4.3 0 .6.1.9.4.2.2.4.5.4.9 0 .3-.1.6-.4.9-.3.2-.6.4-.9.4zm8.1 12.3c-1 0-1.9-.2-2.7-.7-.8-.5-1.4-1.1-1.8-1.9-.4-.8-.7-1.7-.7-2.8 0-1 .2-1.9.7-2.8.4-.8 1.1-1.5 1.8-2 .8-.5 1.7-.7 2.7-.7 1 0 1.9.2 2.7.7.8.5 1.4 1.1 1.9 2s.7 1.7.7 2.7c0 1-.2 1.9-.7 2.8-.4.8-1.1 1.5-1.9 1.9-.8.6-1.7.8-2.7.8zm0-1.5c.6 0 1.2-.2 1.7-.5s1-.8 1.3-1.3c.3-.6.5-1.3.5-2.1s-.2-1.5-.5-2.1-.8-1-1.3-1.3c-.5-.3-1.1-.5-1.7-.5-.6 0-1.2.2-1.7.5s-1 .7-1.3 1.3-.5 1.3-.5 2.1.2 1.5.5 2.1c.3.6.8 1 1.3 1.3.5.4 1.1.5 1.7.5zm7 1.2V86.1h1.6v1.5h.1c.3-.5.7-.9 1.3-1.3.6-.4 1.3-.5 2-.5 1.2 0 2.2.4 2.8 1.1.6.7 1 1.7 1 2.9v6.5h-1.7V90c0-1-.2-1.7-.7-2.1-.5-.4-1.1-.6-1.8-.6-.6 0-1.1.2-1.5.5-.4.3-.8.7-1 1.2-.2.5-.4 1-.4 1.6v5.7h-1.7zM143 86.1h6v1.5h-6v-1.5zm1.7 7.5V83.3h1.7v10c0 .5.1.9.3 1.2s.6.4 1.1.4c.2 0 .4 0 .6-.1.2-.1.4-.2.5-.2v1.7c-.2.1-.4.1-.6.2-.2.1-.5.1-.8.1-.9 0-1.5-.2-2.1-.8-.4-.6-.7-1.3-.7-2.2zm10.5 3c-1 0-1.9-.2-2.7-.7-.8-.5-1.4-1.1-1.8-1.9-.4-.8-.7-1.7-.7-2.8 0-1 .2-1.9.7-2.8.4-.8 1.1-1.5 1.8-2 .8-.5 1.7-.7 2.7-.7 1 0 1.9.2 2.7.7.8.5 1.4 1.1 1.9 2 .4.8.7 1.7.7 2.7 0 1-.2 1.9-.7 2.8-.4.8-1.1 1.5-1.9 1.9-.8.6-1.7.8-2.7.8zm0-1.5c.6 0 1.2-.2 1.7-.5s1-.8 1.3-1.3c.3-.6.5-1.3.5-2.1s-.2-1.5-.5-2.1c-.3-.6-.8-1-1.3-1.3-.5-.3-1.1-.5-1.7-.5-.6 0-1.2.2-1.7.5s-1 .7-1.3 1.3c-.3.6-.5 1.3-.5 2.1s.2 1.5.5 2.1c.3.6.8 1 1.3 1.3.5.4 1.1.5 1.7.5zm12.2 1.2V82h2.1l7.2 11.4h.1l-.1-2.8V82h1.7v14.3h-1.8l-7.5-11.9h-.1l.1 2.8v9.2h-1.7zm18.2.3c-1 0-1.9-.2-2.6-.7-.8-.5-1.4-1.1-1.8-1.9-.4-.8-.6-1.7-.6-2.8 0-1 .2-1.9.6-2.7.4-.8 1-1.5 1.7-2s1.6-.8 2.6-.8 1.9.2 2.6.7c.7.4 1.3 1.1 1.7 1.8.4.8.6 1.7.6 2.7v.5h-8.8V90h7c0-.3-.1-.6-.2-.9-.1-.3-.3-.6-.5-.9-.2-.3-.6-.5-.9-.7-.4-.2-.8-.3-1.4-.3-.7 0-1.2.2-1.7.5s-.8.8-1.1 1.4c-.3.6-.4 1.2-.4 2 0 .9.2 1.6.5 2.2.3.6.8 1 1.3 1.3.5.3 1.1.4 1.7.4.8 0 1.4-.2 1.8-.5.5-.4.9-.8 1.2-1.3l1.4.7c-.4.8-1 1.4-1.7 1.9-1 .6-1.9.8-3 .8zm5.5-.3 4.1-5.9h.2l2.9-4.3h2l-4 5.6h-.1l-3.1 4.6h-2zm.1-10.2h1.9l3.2 4.5h.1l4 5.7h-2l-3-4.5h-.1l-4.1-5.7zm9.9 0h6v1.5h-6v-1.5zm1.8 7.5V83.3h1.7v10c0 .5.1.9.3 1.2.2.3.6.4 1.1.4.2 0 .4 0 .6-.1.2-.1.4-.2.5-.2v1.7c-.2.1-.4.1-.6.2-.2.1-.5.1-.8.1-.9 0-1.5-.2-2.1-.8-.4-.6-.7-1.3-.7-2.2zm11.2 2.7V82h4.8c.8 0 1.5.2 2.2.5.7.4 1.2.8 1.6 1.5.4.6.6 1.4.6 2.2 0 .8-.2 1.6-.6 2.2-.4.6-.9 1.1-1.6 1.5-.7.4-1.4.5-2.2.5H215v-1.6h4c.6 0 1-.1 1.4-.4.4-.3.7-.6.9-1 .2-.4.3-.8.3-1.2s-.1-.8-.3-1.2c-.2-.4-.5-.7-.9-1-.4-.3-.9-.4-1.4-.4h-3.2v12.7h-1.7zm14.1.3c-.8 0-1.4-.1-2-.4s-1-.7-1.3-1.2-.5-1.1-.5-1.8c0-.8.2-1.4.6-1.9s.9-.9 1.5-1.2c.7-.3 1.4-.4 2.2-.4.4 0 .9 0 1.2.1s.7.2 1 .3c.3.1.5.2.7.3v-.6c0-.8-.3-1.4-.8-1.8-.5-.5-1.2-.7-2-.7-.6 0-1.1.1-1.6.4-.5.2-.9.6-1.1 1l-1.3-1c.3-.4.6-.7 1-1 .4-.3.9-.5 1.4-.7s1.1-.2 1.6-.2c1.4 0 2.5.4 3.2 1.1.8.7 1.2 1.7 1.2 3v6.5h-1.6v-1.5h-.1c-.2.3-.4.6-.7.8s-.7.5-1.1.7c-.6.2-1 .2-1.5.2zm.1-1.5c.6 0 1.1-.1 1.6-.4.5-.3.9-.7 1.2-1.2.3-.5.5-1 .5-1.6-.3-.2-.7-.4-1.2-.5s-1-.2-1.5-.2c-1 0-1.7.2-2.1.6-.4.4-.7.9-.7 1.5s.2 1 .6 1.4 1 .4 1.6.4zm7.4 1.2V86.1h1.7v10.2h-1.7zm.8-12c-.3 0-.6-.1-.9-.4s-.4-.5-.4-.9c0-.3.1-.6.4-.9.2-.2.5-.4.9-.4.3 0 .6.1.9.4.2.2.4.5.4.9 0 .3-.1.6-.4.9-.2.2-.5.4-.9.4zm3.5 12V86.1h1.6v1.5h.1c.3-.5.7-.9 1.3-1.3.6-.4 1.3-.5 2-.5 1.2 0 2.2.4 2.8 1.1.6.7 1 1.7 1 2.9v6.5h-1.7V90c0-1-.2-1.7-.7-2.1-.5-.4-1.1-.6-1.8-.6-.6 0-1.1.2-1.5.5-.4.3-.8.7-1 1.2-.2.5-.4 1-.4 1.6v5.7H240zm10.1-10.2h6v1.5h-6v-1.5zm1.7 7.5V83.3h1.7v10c0 .5.1.9.3 1.2s.6.4 1.1.4c.2 0 .4 0 .6-.1.2-.1.4-.2.5-.2v1.7c-.2.1-.4.1-.6.2-.2.1-.5.1-.8.1-.9 0-1.5-.2-2.1-.8s-.7-1.3-.7-2.2zM96 172.8c-2.4 0-4.3 1.9-4.3 4.3 0 2 1.4 3.7 3.3 4.2v20.1h2v-20.1c1.9-.5 3.3-2.1 3.3-4.2 0-2.3-1.9-4.3-4.3-4.3zM201.6 172.6c-2.4 0-4.3 1.9-4.3 4.3 0 2 1.4 3.7 3.3 4.2v19.8h2v-19.8c1.9-.5 3.3-2.1 3.3-4.2 0-2.4-1.9-4.3-4.3-4.3z"></path></svg>