<?xml version="1.0" encoding="UTF-8" standalone="no"?>
<svg
   viewBox="0 0 187.69 279.94"
   version="1.1"
   id="svg23"
   sodipodi:docname="2023-11-01-rum-archive-one-year-anniversary-2.svg"
   xml:space="preserve"
   inkscape:version="1.3 (0e150ed, 2023-07-21)"
   xmlns:inkscape="http://www.inkscape.org/namespaces/inkscape"
   xmlns:sodipodi="http://sodipodi.sourceforge.net/DTD/sodipodi-0.dtd"
   xmlns="http://www.w3.org/2000/svg"
   xmlns:svg="http://www.w3.org/2000/svg"><defs
     id="defs23" /><sodipodi:namedview
     id="namedview23"
     pagecolor="#ffffff"
     bordercolor="#000000"
     borderopacity="0.25"
     inkscape:showpageshadow="2"
     inkscape:pageopacity="0.0"
     inkscape:pagecheckerboard="0"
     inkscape:deskcolor="#d1d1d1"
     inkscape:zoom="0.84303779"
     inkscape:cx="94.301823"
     inkscape:cy="139.37691"
     inkscape:window-width="1792"
     inkscape:window-height="1010"
     inkscape:window-x="0"
     inkscape:window-y="25"
     inkscape:window-maximized="0"
     inkscape:current-layer="svg23" /><linearGradient
     id="a"
     gradientUnits="userSpaceOnUse"
     x1="93.85"
     x2="93.85"
     y1="167.59"
     y2="86.94"><stop
       offset=".21"
       stop-color="#f2d98f"
       id="stop1" /><stop
       offset=".33"
       stop-color="#eeda95"
       id="stop2" /><stop
       offset=".51"
       stop-color="#e5dfa9"
       id="stop3" /><stop
       offset=".72"
       stop-color="#d6e7c8"
       id="stop4" /><stop
       offset=".94"
       stop-color="#c2f2f2"
       id="stop5" /></linearGradient><path
     d="m0 0h187.68v168.88h-187.68z"
     fill="url(#a)"
     id="path5" /><path
     d="m187.68 140.57c-.68.33-1.28.87-1.98.27-1.53-1.34-3.89-1.47-3.89-1.47s-.51-1.4-2.04-2.17-1.97-.06-2.55.51c-.57.57-.51 2.8-1.85 3.31s-2.93-3.76-3.57-3.31-.57.57-1.91.13c-1.34-.45-.83-.25-1.47-.19s-1.4-.25-2.36-.51c-.96-.25-.7.7-1.21.89s-.51-1.02-1.59-1.72-.7 3.63-1.66 3.7c-.96.06-.32-.45-1.08-3.38s-1.66 0-2.61-.19c-.96-.19-2.48-.45-3.44-.96s-1.78-.25-2.55-.38c-.76-.13-.25-.83-1.27-.83s-.89.76-1.66 1.02c-.76.25-.64-1.08-1.91-.83s-1.72 1.34-2.48 1.59-.83-.45-2.55-.57-1.66 1.27-2.54 1.47c-.88.19-.45-1.15-1.79-2.29s-1.02.76-2.55.25-1.15-3.7-1.91-3.38-1.27 3.44-1.91 3.76-2.48-3.89-2.87-3.7c-.38.19-.89.89-1.34 1.21s-.76.19-2.23.38-1.98 0-3.76-.38-1.21.57-1.98.32-.83-2.68-1.91-2.74c-8.41.51-5.48-1.72-6.75-1.78s-.7 2.8-2.29 2.99-2.42-3.89-2.99-4.08-.7 1.85-1.53 1.98-.76-2.68-1.72-2.48c-.96.19-.51 1.78-2.29 2.04s-3.76-2.29-4.59-3.19c-.83-.89-2.1-.45-3.57-2.23s-2.68-1.53-4.14-1.02-2.42-2.04-3.63-2.99c-1.21-.96-.57.64-1.66.64s-1.4-1.53-2.8-2.61-1.85-.76-3.25-1.21-1.66-.25-3.38-1.4-2.93-2.48-4.14-2.55c-1.21-.06-2.74-4.01-3.63-5.03s-1.34-.06-2.1-.06-2.87-4.84-2.87-4.84-.25-.57-1.4.89c-1.15 1.47-2.68-4.97-4.91-6.18s-2.29-3.44-4.33-3.95-1.66-1.53-2.93-3.82-2.42-.64-2.42-.64l-.89-.13c-.12-.02-.2-.03-.26-.04-.3-.7-1.16-4.88-1.39-5.63-.25-.83-1.53-.25-1.72-.45-.19-.19-8.22-6.88-10.7-7.45s-2.87 1.59-4.33 3.25-1.72 1.98-2.48 3.76-.57 2.48-1.34 5.29c-.76 2.8-1.53 3.12-2.04 4.27s-.32 3.31-.64 5.1c-.32 1.78-1.72 5.86-2.1 6.82s-2.17 13.32-2.36 14.08-2.04 9.05-2.36 10.26-1.4.96-1.53 2.1c-.13 1.15-1.53 12.61-2.61 15.04-1.08 2.42-2.04 3.63-2.61 6.63-.57 2.99-1.47 4.29-2.8 6.2-1.72-.83-1.78 1.57-1.78 1.57h187.68zm-144.81-51.79s-.03-.02-.06-.07c.07.02.12.05.06.07z"
     fill="#f2835c"
     id="path6" /><g
     fill="#006a80"
     id="g23"><path
       d="m19.91 223.61h-5.81v15.35h-14.1v-58.08h28.29c12.28 0 21.4 9.29 21.4 21.41 0 9.04-5.06 16.34-12.61 19.58l15.76 17.09h-19l-13.94-15.35zm6.39-12.11c5.23 0 9.29-3.57 9.29-9.21s-4.07-9.29-9.29-9.29h-12.2v18.5z"
       id="path7" /><path
       d="m59.74 215.31v-34.43h14.1v34.6c0 8.46 4.9 12.36 11.78 12.36s11.78-3.9 11.78-12.36v-34.6h14.1v34.43c0 15.35-10.87 24.81-25.89 24.81s-25.89-9.46-25.89-24.81z"
       id="path8" /><path
       d="m155.24 218.38 22.98-37.5h9.46v58.08h-13.61v-28.13l-18.83 28.96-18.83-28.96v28.13h-13.61v-58.08h9.46z"
       id="path9" /><path
       d="m20.63 275.37h-11.77l-1.41 4h-7.45l12.17-28.31h5.18l12.17 28.31h-7.44l-1.46-4zm-9.75-5.62h7.72l-3.84-10.68z"
       id="path10" /><path
       d="m42.96 271.89h-2.83v7.48h-6.88v-28.31h13.79c5.99 0 10.43 4.53 10.43 10.43 0 4.41-2.47 7.97-6.15 9.54l7.68 8.33h-9.26l-6.79-7.48zm3.11-5.9c2.55 0 4.53-1.74 4.53-4.49s-1.98-4.53-4.53-4.53h-5.95v9.02z"
       id="path11" /><path
       d="m83.85 261.13c-1.09-2.63-3.56-4.65-7.44-4.65-5.42 0-8.21 3.92-8.21 8.74s2.79 8.74 8.21 8.74c3.88 0 6.35-2.02 7.44-4.65h6.83c-1.33 5.66-6.59 10.64-14.24 10.64-9.38 0-15.13-6.71-15.13-14.72s5.74-14.72 15.13-14.72c7.64 0 12.9 4.97 14.24 10.64h-6.83z"
       id="path12" /><path
       d="m113.78 251.06h6.88v28.31h-6.88v-11.04h-11.77v11.04h-6.88v-28.31h6.88v10.96h11.77z"
       id="path13" /><path
       d="m126.53 279.37v-28.31h6.88v28.31z"
       id="path14" /><path
       d="m153.14 279.37h-4.93l-11.57-28.31h7.4l6.63 17.96 6.63-17.96h7.4l-11.57 28.31z"
       id="path15" /><path
       d="m187.68 273.39v5.99h-19.94v-28.31h19.78v5.99h-12.9v4.97h12.54v5.99h-12.54v5.38h13.06z"
       id="path16" /><path
       d="m92.93 25.33s-.03.03-.05.03c0 0 0-.03-.03-.05.03.03.05.03.08.03z"
       id="path17" /><path
       d="m85.18 45.89c.08.03.16.03.24.03t-.03.05c-.05-.03-.13-.05-.21-.08z"
       id="path18" /><path
       d="m187.69 159.4v9.49h-187.69v-9.49h70.98c-5.88-17.68-8.02-36.74-4.2-55.05 3.77-17.83 12.49-35.86 27.63-46.4-2.56 1.39-5.52 2.98-8.62 4.63.05-.79.08-1.68.08-2.65-2.37 3.99-5.58 5.78-7.99 6.52.07-1.45.13-3.16.13-5.18-.95 2.6-2.03 4.47-3.13 5.78-.03.05-.05.08-.08.11-1.26 1.49-2.52 2.28-3.52 2.68.02-.82.05-1.71.05-2.68-2.92 4.33-6.73 6.59-9.96 7.75 7.38-25.29 23.13-27.34 32.36-26.11-1.56-.53-3.26-1.11-5.05-1.73.23-.18.5-.39.76-.63.34-.31.24-.81-.19-.73-1.41.26-2.7.31-3.83.21.63-.79 1.31-1.69 2.05-2.74.31-.44-.11-1.1-.63-.92-4.76 1.5-9.02.92-12.1 0-.42-.13-.78-.26-1.15-.36v-.03c.52-.32 1.08-.74 1.65-1.26-2.73.6-5.07-.27-6.78-1.34.37-.27.76-.61 1.19-.98-.77.19-1.5.27-2.21.27-.29 0-.58-.03-.87-.08-1.29-.16-2.42-.61-3.37-1.13.98-.55 2-1.32 3.05-2.29-2.13.32-4.2.18-6.12-.26-1.79-.42-3.47-1.11-4.97-1.89 26.43-17.25 42.82 6.75 46.66 13.34-.09-.71-.21-1.48-.39-2.33.49 0 1.05-.03 1.63-.05.52-.06.73-.69.34-1-1.42-1.19-2.63-2.79-3.66-4.42v-.02c0-.08-.05-.16-.1-.27.52 0 1.1-.02 1.71-.05.5-.03.73-.66.34-1-3.1-2.58-5.26-7.07-6.36-9.83.55-.47 1.23-1.08 2.05-1.92-1.9.61-3.39.4-4.45-.03.53-.31 1.61-1.13 3.26-2.78-2.76.87-4.7.02-5.62-.58 0-.03-.03-.05-.05-.11.79-.07 1.65-.18 2.55-.31-2.71-1.29-4.76-2.97-6.36-4.73-.43-.55-.87-1.11-1.35-1.68-.52-.71-.97-1.4-1.34-2.08 31.16 7.63 28.39 25.05 25.72 32.25 6.69-8.7 23.59-24.95 46.86-6.6-1.66.37-3.21.32-4.55.11-3.81-1.21-6.57-2.92-7.07-3.23l4.34 3.6.53.55c-.06.05-.11.08-.16.1-1.29-.34-2.42-.78-3.37-1.2-.42-.19-.76.36-.42.65l1.87 1.66c-3.21 1.5-6.68 1.84-9.75 1.66h-.03c-4.97-.29-8.99-1.92-9.52-2.13l7.02 3.99c-7.25 4.71-14.82 2.97-15.72 2.76l3.89 1.79c-2.74.79-5.32 1.54-7.63 2.2 9.25.81 28.78 6.23 26.06 37.91-.6-.66-1.21-1.36-1.81-2.15-.48-.71-.92-1.34-1.4-1.97-1.39-2.27-2.52-4.92-2.97-8-.47.79-.89 1.55-1.28 2.24-.06-.05-.06-.08-.08-.08-.35-1.13-.58-3.31 1.39-5.49-2.47.81-3.76 1.47-4.31 1.81-.05-.68.05-1.45.39-2.29-.79-.21-1.34-.52-1.68-.79-.34-.23-.47-.42-.47-.42-2.68-2.23-6.55-5.99-8.18-9.75-.26-.52-1.05-.58-1.26-.1-.24.55-.47 1.07-.66 1.55-.1-.08-.18-.16-.26-.21h-.03c-1.44-1.66-2.81-3.5-3.6-5.31-.21-.53-1-.61-1.23-.13-.18.39-.36.76-.51 1.12 5.96 6.42 12.83 19.85-11.45 33.43 1.16-2.65 2.99-6.16 6.13-9.71-.8.3-1.53.59-2.2.85.2-.87.67-2.08 1.64-3.51.01-.03.03-.06.07-.09.85-1.26 2.09-2.67 3.86-4.21-1.57.63-2.89 1.2-4.01 1.71.03-2.1.5-5.15 2.52-8.22-.71.3-1.35.6-1.91.89.13-2.95-.08-5.7-.42-8.04-1.24.69-2.67 1.08-4.19 1.08-.76 0-1.49-.1-2.19-.28-12.83 9.97-19.3 27.54-20.61 43.43-1.64 18.55 3.79 36.85 12.82 52.9h-.02s93.51.01 93.51.01z"
       id="path19" /><path
       d="m92.93 25.33s-.03.03-.05.03c0 0 0-.03-.03-.05.03.03.05.03.08.03z"
       id="path20" /><path
       d="m92.93 25.33s-.03.03-.05.03c0 0 0-.03-.03-.05.03.03.05.03.08.03z"
       id="path21" /><path
       d="m85.41 45.91s-.03.03-.03.05c-.05-.03-.13-.05-.21-.08.08.03.16.03.24.03z"
       id="path22" /><path
       d="m85.41 45.91s-.03.03-.03.05c-.05-.03-.13-.05-.21-.08.08.03.16.03.24.03z"
       id="path23" /></g><g
     id="g24"
     transform="matrix(2.3759471,0,0,2.3759471,14.009379,21.255013)"><g
       id="color"><ellipse
         cx="29.5854"
         cy="24.8305"
         rx="11.1656"
         ry="11.1657"
         transform="rotate(-36.812602,29.583841,24.829803)"
         fill="#ffffff"
         stroke="none"
         id="ellipse1" /><path
         fill="#92d3f5"
         stroke="none"
         d="m 39,19 c -1.6269,-2.1743 -5.3114,-4.6131 -8,-5 -1.841,-0.2648 -5,0 -5.3126,1.4508 2.432,0.2232 6.261,1.3933 9.4483,6.0391 2.7047,3.9427 2.9098,7.2606 2.5092,9.5215 C 40,31 41.7867,22.7243 39,19 Z"
         id="path1" /><path
         fill="#d0cfce"
         stroke="none"
         d="m 20.717,13.2532 c -3.1395,2.3517 -5.1766,5.7832 -5.7372,9.6663 -0.5584,3.883 0.4286,7.7514 2.7785,10.8927 4.8528,6.4827 14.0758,7.8101 20.5595,2.9577 6.4832,-4.8514 7.8112,-14.073 2.9587,-20.5591 -2.3504,-3.1402 -5.7839,-5.1778 -9.6668,-5.7362 -3.883,-0.5585 -7.751,0.4276 -10.8927,2.7786 z m 17.4763,5.1351 c 2.2813,3.0482 2.696,6.924 1.4434,10.248 -0.6965,1.8514 -1.9113,3.5306 -3.6095,4.8016 -4.7463,3.5525 -11.498,2.58 -15.0496,-2.166 -1.7206,-2.2992 -2.4437,-5.1309 -2.0341,-7.9731 0.41,-2.8429 1.8999,-5.3554 4.2002,-7.0765 2.2984,-1.721 5.1298,-2.4433 7.9731,-2.0341 2.8424,0.4087 5.3551,1.9007 7.0765,4.2001 z"
         id="path2" /><path
         fill="#3f3f3f"
         stroke="none"
         d="m 39,42 10,14 c 0,0 3,4 5,2 2,-2 0,-5 0,-5 L 43,39 Z"
         id="path3" /></g><g
       id="hair" /><g
       id="skin" /><g
       id="skin-shadow" /><g
       id="line"><circle
         cx="29.5854"
         cy="24.8305"
         transform="rotate(-36.812602,29.583991,24.829853)"
         fill="none"
         stroke="#000000"
         stroke-linecap="round"
         stroke-linejoin="round"
         stroke-miterlimit="10"
         stroke-width="2"
         id="ellipse3"
         r="14.6372" /><ellipse
         cx="29.5854"
         cy="24.8305"
         rx="11.1656"
         ry="11.1657"
         transform="rotate(-36.812602,29.583841,24.829803)"
         fill="none"
         stroke="#000000"
         stroke-linecap="round"
         stroke-linejoin="round"
         stroke-miterlimit="10"
         stroke-width="2"
         id="ellipse4" /><path
         fill="none"
         stroke="#000000"
         stroke-linecap="round"
         stroke-linejoin="round"
         stroke-miterlimit="10"
         stroke-width="2"
         d="m 38.6805,41.7876 4.1839,-3.1316 11.6927,15.622 c 0.8354,1.1162 0.5758,2.7219 -0.5795,3.5867 v 0 c -1.1554,0.8647 -2.7691,0.661 -3.6045,-0.4551 z"
         id="path4" /></g></g></svg>
