<?xml version="1.0" encoding="UTF-8" standalone="no"?>
<svg
   viewBox="0 0 1600 899.99999"
   version="1.1"
   id="svg23"
   sodipodi:docname="rum-archive-banner-twitter.svg"
   width="1600"
   height="900"
   inkscape:version="1.3 (0e150ed, 2023-07-21)"
   inkscape:export-filename="rum-archive-banner-twitter-1600x900.png"
   inkscape:export-xdpi="96"
   inkscape:export-ydpi="96"
   xmlns:inkscape="http://www.inkscape.org/namespaces/inkscape"
   xmlns:sodipodi="http://sodipodi.sourceforge.net/DTD/sodipodi-0.dtd"
   xmlns="http://www.w3.org/2000/svg"
   xmlns:svg="http://www.w3.org/2000/svg">
  <defs
     id="defs23" />
  <sodipodi:namedview
     id="namedview23"
     pagecolor="#ffffff"
     bordercolor="#000000"
     borderopacity="0.25"
     inkscape:showpageshadow="2"
     inkscape:pageopacity="0.0"
     inkscape:pagecheckerboard="0"
     inkscape:deskcolor="#d1d1d1"
     inkscape:zoom="0.49425265"
     inkscape:cx="670.70961"
     inkscape:cy="340.91876"
     inkscape:window-width="1792"
     inkscape:window-height="1010"
     inkscape:window-x="0"
     inkscape:window-y="25"
     inkscape:window-maximized="0"
     inkscape:current-layer="svg23"
     inkscape:export-bgcolor="#fffffff0" />
  <linearGradient
     id="a"
     gradientUnits="userSpaceOnUse"
     x1="93.849998"
     x2="93.849998"
     y1="167.59"
     y2="86.940002"
     gradientTransform="scale(5.3231246,5.328912)">
    <stop
       offset=".21"
       stop-color="#f2d98f"
       id="stop1" />
    <stop
       offset=".33"
       stop-color="#eeda95"
       id="stop2" />
    <stop
       offset=".51"
       stop-color="#e5dfa9"
       id="stop3" />
    <stop
       offset=".72"
       stop-color="#d6e7c8"
       id="stop4" />
    <stop
       offset=".94"
       stop-color="#c2f2f2"
       id="stop5" />
  </linearGradient>
  <path
     d="M 0,0 H 999.0441 V 899.94671 H 0 Z"
     fill="url(#a)"
     id="path5"
     style="fill:url(#a);stroke-width:5.32601" />
  <path
     d="m 999.0441,749.08521 c -3.61973,1.75855 -6.81359,4.63613 -10.5398,1.4388 -8.14437,-7.14074 -20.70694,-7.83351 -20.70694,-7.83351 0,0 -2.7148,-7.46047 -10.85919,-11.56374 -8.14436,-4.10326 -10.48654,-0.31973 -13.57397,2.71775 -3.03417,3.03748 -2.71477,14.92096 -9.84777,17.6387 -7.13299,2.71775 -15.59676,-20.0367 -19.00356,-17.6387 -3.4068,2.39802 -3.03418,3.03748 -10.16716,0.69278 -7.13298,-2.39803 -4.41821,-1.33223 -7.82501,-1.0125 -3.40679,0.31972 -7.45236,-1.33223 -12.56256,-2.71776 -5.1102,-1.33222 -3.72618,3.73026 -6.44098,4.74274 -2.7148,1.0125 -2.7148,-5.43548 -8.46376,-9.16574 -5.749,-3.73023 -3.72619,19.34396 -8.8364,19.71698 -5.1102,0.31973 -1.7034,-2.39801 -5.74897,-18.01172 -4.04557,-15.6137 -8.83639,0 -13.89334,-1.01249 -5.1102,-1.0125 -13.20138,-2.39801 -18.31156,-5.11576 -5.1102,-2.71774 -9.47517,-1.33223 -13.57399,-2.02498 -4.04557,-0.69276 -1.33077,-4.42299 -6.76035,-4.42299 -5.42959,0 -4.73759,4.04994 -8.8364,5.43547 -4.04558,1.33225 -3.4068,-5.75521 -10.16716,-4.423 -6.76039,1.33223 -9.15577,7.14075 -13.20134,8.47299 -4.04559,1.33221 -4.4182,-2.39803 -13.57399,-3.03749 -9.15577,-0.63947 -8.83639,6.76773 -13.52073,7.8335 -4.68434,1.01249 -2.3954,-6.12825 -9.5284,-12.20321 -7.13298,-6.07496 -5.42958,4.04998 -13.57396,1.33223 -8.14438,-2.71775 -6.1216,-19.71696 -10.16717,-18.01172 -4.04558,1.70525 -6.76035,18.33146 -10.16717,20.0367 -3.4068,1.70526 -13.20134,-20.72945 -15.27737,-19.71695 -2.02279,1.0125 -4.73759,4.74272 -7.13299,6.44797 -2.39541,1.70524 -4.04557,1.0125 -11.87057,2.025 -7.82498,1.01248 -10.53978,0 -20.01495,-2.025 -9.47516,-2.02499 -6.44098,3.03748 -10.53978,1.70524 -4.09881,-1.33221 -4.4182,-14.28147 -10.16718,-14.60121 -44.76747,2.71774 -29.17072,-9.16573 -35.93109,-9.48546 -6.76037,-0.31974 -3.72618,14.92096 -12.18994,15.93346 -8.46377,1.0125 -12.88197,-20.72949 -15.91616,-21.74199 -3.03417,-1.01249 -3.72618,9.8585 -8.14437,10.55126 -4.41818,0.69275 -4.04558,-14.28149 -9.15577,-13.2157 -5.1102,1.0125 -2.71481,9.48545 -12.18997,10.87097 -9.47516,1.38553 -20.01494,-12.2032 -24.43314,-16.99923 -4.41819,-4.74273 -11.17855,-2.39801 -19.00356,-11.88347 -7.82499,-9.48544 -14.26597,-8.15324 -22.03773,-5.4355 -7.77177,2.71776 -12.88197,-10.87097 -19.32296,-15.93343 -6.44097,-5.11577 -3.03417,3.4105 -8.83637,3.4105 -5.80221,0 -7.45238,-8.15324 -14.90476,-13.90847 -7.45238,-5.75522 -9.84778,-4.04996 -17.30015,-6.44799 -7.45237,-2.39801 -8.83639,-1.33221 -17.99216,-7.46047 -9.15579,-6.12824 -15.59677,-13.2157 -22.03774,-13.58873 -6.44099,-0.31971 -14.58537,-21.36893 -19.32296,-26.80443 -4.73757,-5.43548 -7.13297,-0.31972 -11.17856,-0.31972 -4.04557,0 -15.27735,-25.79195 -15.27735,-25.79195 0,0 -1.33078,-3.03745 -7.45238,4.74275 -6.12161,7.83348 -14.26598,-26.4847 -26.13655,-32.93269 -11.87057,-6.44797 -12.18995,-18.33146 -23.04915,-21.0492 -10.85915,-2.71774 -8.83637,-8.15326 -15.59674,-20.35646 -6.76036,-12.2032 -12.88197,-3.41048 -12.88197,-3.41048 l -4.73757,-0.69277 c -0.63879,-0.10672 -1.06462,-0.15986 -1.384,-0.21315 -1.59694,-3.73024 -6.17484,-26.00511 -7.39916,-30.00178 -1.33077,-4.42299 -8.14437,-1.33223 -9.15577,-2.39802 -1.0114,-1.01248 -43.75609,-36.66291 -56.95744,-39.7004 -13.20135,-3.03747 -15.27737,8.47297 -23.04913,17.31897 -7.77176,8.846 -9.15577,10.55125 -13.20135,20.03672 -4.04557,9.48546 -3.03418,13.21568 -7.13299,28.18996 -4.04557,14.92094 -8.14438,16.62618 -10.85917,22.75444 -2.714793,6.12826 -1.7034,17.63868 -3.4068,27.17744 -1.7034,9.48546 -9.155777,31.22744 -11.178563,36.34319 -2.022787,5.11575 -11.551183,70.98111 -12.562577,75.0311 -1.011393,4.04997 -10.859174,48.22664 -12.562573,54.67463 -1.703401,6.448 -7.452377,5.11575 -8.144383,11.19071 -0.692005,6.12824 -8.144381,67.1976 -13.893355,80.14684 C 32.524293,786.28101 27.414093,792.729 24.379913,808.71574 21.345731,824.6492 16.554919,831.57679 9.4751624,841.755 0.3193875,837.332 0,850.12139 0,850.12139 H 999.0441 Z M 228.20237,473.10083 c 0,0 -0.1597,-0.10672 -0.31938,-0.37302 0.37261,0.10672 0.63875,0.26646 0.31938,0.37302 z"
     fill="#f2835c"
     id="path6"
     style="stroke-width:5.32601" />
  <path
     d="m 1073.9356,429.23334 h -17.7306 v 46.84392 h -43.029 V 298.834 h 86.333 c 37.4747,0 65.3065,28.35046 65.3065,65.33699 0,27.58761 -15.4417,49.86474 -38.4821,59.75223 l 48.0949,52.15404 h -57.9824 l -42.5407,-46.84392 z m 19.5005,-36.956 c 15.9604,0 28.3499,-10.89486 28.3499,-28.10635 0,-17.2115 -12.42,-28.35047 -28.3499,-28.35047 h -37.2311 v 56.45682 z"
     id="path7"
     style="fill:#006a80;stroke-width:3.05173" />
  <path
     d="M 1195.4849,403.90411 V 298.834 h 43.0289 v 105.58884 c 0,25.81745 14.9536,37.71924 35.9492,37.71924 20.9959,0 35.949,-11.90179 35.949,-37.71924 V 298.834 h 43.0293 v 105.07011 c 0,46.8439 -33.1723,75.7131 -79.0089,75.7131 -45.8365,0 -79.0084,-28.8692 -79.0084,-75.7131 z"
     id="path8"
     style="fill:#006a80;stroke-width:3.05173" />
  <path
     d="M 1486.9228,413.27288 1557.0509,298.834 h 28.869 v 177.24326 h -41.5337 v -85.84472 l -57.4634,88.37734 -57.4636,-88.37734 v 85.84472 h -41.5338 V 298.834 h 28.8691 z"
     id="path9"
     style="fill:#006a80;stroke-width:3.05173" />
  <path
     d="m 1076.1326,587.1898 h -35.9185 l -4.3028,12.20654 h -22.7353 l 37.1391,-86.39357 h 15.8079 l 37.1395,86.39357 h -22.7047 l -4.4556,-12.20654 z m -29.7541,-17.15088 h 23.5591 l -11.7183,-32.5922 z"
     id="path10"
     style="fill:#006a80;stroke-width:3.05173" />
  <path
     d="m 1144.2772,576.56958 h -8.6361 v 22.82676 h -20.9959 v -86.39357 h 42.083 c 18.2799,0 31.8294,13.82412 31.8294,31.82937 0,13.45796 -7.5376,24.3219 -18.768,29.11329 l 23.4369,25.4204 h -28.2584 l -20.7214,-22.82676 z m 9.4908,-18.00485 c 7.7821,0 13.8242,-5.31011 13.8242,-13.70207 0,-8.39237 -6.0421,-13.82452 -13.8242,-13.82452 h -18.1574 v 27.52659 z"
     id="path11"
     style="fill:#006a80;stroke-width:3.05173" />
  <path
     d="m 1269.0618,543.73325 c -3.3264,-8.02579 -10.8644,-14.19028 -22.7047,-14.19028 -16.5403,0 -25.0547,11.96283 -25.0547,26.67184 0,14.70941 8.5144,26.67184 25.0547,26.67184 11.8403,0 19.3783,-6.1645 22.7047,-14.1903 h 20.8429 c -4.0587,17.27253 -20.1107,32.47015 -43.4562,32.47015 -28.625,0 -46.1722,-20.47683 -46.1722,-44.92118 0,-24.44396 17.5166,-44.92119 46.1722,-44.92119 23.315,0 39.367,15.16712 43.4562,32.47017 h -20.8429 z"
     id="path12"
     style="fill:#006a80;stroke-width:3.05173" />
  <path
     d="m 1360.3992,513.00277 h 20.9955 v 86.39357 h -20.9955 v -33.6907 h -35.9186 v 33.6907 h -20.9959 v -86.39357 h 20.9959 v 33.44659 h 35.9186 z"
     id="path13"
     style="fill:#006a80;stroke-width:3.05173" />
  <path
     d="m 1399.3085,599.39634 v -86.39357 h 20.9953 v 86.39357 z"
     id="path14"
     style="fill:#006a80;stroke-width:3.05173" />
  <path
     d="m 1480.5144,599.39634 h -15.0452 l -35.3082,-86.39357 h 22.5826 l 20.2325,54.80868 20.2334,-54.80868 h 22.5827 l -35.3085,86.39357 z"
     id="path15"
     style="fill:#006a80;stroke-width:3.05173" />
  <path
     d="m 1585.9199,581.14737 v 18.27948 h -60.851 v -86.39357 h 60.3629 v 18.27985 h -39.3668 v 15.16674 h 38.2684 v 18.27986 h -38.2684 v 16.41815 h 39.8549 z"
     id="path16"
     style="fill:#006a80;stroke-width:3.05173" />
  <path
     d="m 494.67801,134.98135 c 0,0 -0.1597,0.15987 -0.26615,0.15987 0,0 0,-0.15987 -0.1597,-0.26645 0.1597,0.15987 0.26615,0.15987 0.42585,0.15987 z"
     id="path17"
     style="fill:#006a80;stroke-width:5.32601" />
  <path
     d="m 453.4238,244.54379 c 0.42583,0.15987 0.8517,0.15987 1.27753,0.15987 q 0,0 -0.15969,0.26644 c -0.26614,-0.15987 -0.69201,-0.26644 -1.11784,-0.42631 z"
     id="path18"
     style="fill:#006a80;stroke-width:5.32601" />
  <path
     d="M 999.09733,849.42863 V 900 H 0 V 849.42863 H 377.83541 C 346.53544,755.21346 335.14396,653.64439 355.4783,556.07199 375.54649,461.0575 421.96411,364.97721 502.55623,308.81046 c -13.6272,7.4072 -29.38364,15.88017 -45.88534,24.67287 0.26615,-4.20983 0.42585,-8.95257 0.42585,-14.12162 -12.61581,21.26238 -29.70303,30.8011 -42.53177,34.74452 0.37262,-7.72692 0.69202,-16.83936 0.69202,-27.60379 -5.05698,13.85519 -10.80596,23.82026 -16.66139,30.80113 -0.15969,0.26644 -0.26614,0.42632 -0.42586,0.58617 -6.70714,7.94009 -13.41427,12.14993 -18.73737,14.2815 0.10643,-4.36971 0.26613,-9.11244 0.26613,-14.2815 -15.54353,23.0742 -35.82463,35.11755 -53.01833,41.29907 39.28469,-134.76818 123.1239,-145.69244 172.25634,-139.1379 -8.30408,-2.82431 -17.35338,-5.91508 -26.88178,-9.21901 1.22431,-0.95921 2.66156,-2.07827 4.04557,-3.3572 1.80987,-1.65197 1.27754,-4.31643 -1.01139,-3.8901 -7.50561,1.3855 -14.37242,1.65194 -20.38758,1.11906 3.35358,-4.20986 6.9733,-9.00587 10.91241,-14.60122 1.65017,-2.34474 -0.58554,-5.86181 -3.35357,-4.90261 -25.33807,7.99338 -48.01457,4.90261 -64.4098,0 -2.23573,-0.69276 -4.15204,-1.3855 -6.1216,-1.91842 v -0.15987 c 2.76802,-1.70524 5.74899,-3.94338 8.78316,-6.71441 -14.53213,3.19736 -26.98824,-1.4388 -36.0908,-7.14074 1.96956,-1.4388 4.04558,-3.25065 6.33453,-5.22233 -4.09882,1.0125 -7.98469,1.4388 -11.76412,1.4388 -1.54368,0 -3.08741,-0.15986 -4.63111,-0.4263 -6.86683,-0.85263 -12.88196,-3.25066 -17.93893,-6.02167 5.21667,-2.93092 10.64624,-7.03418 16.23553,-12.20322 -11.33826,1.70524 -22.35712,0.9592 -32.57752,-1.38551 -9.52841,-2.23816 -18.47124,-5.9151 -26.45594,-10.07166 140.6902,-91.923734 227.93623,35.97016 248.37703,71.0877 -0.47909,-3.78354 -1.11787,-7.8868 -2.07601,-12.41637 2.60831,0 5.58925,-0.15987 8.67667,-0.26644 2.76803,-0.31973 3.88588,-3.67695 1.80987,-5.3289 -7.55883,-6.34142 -13.99982,-14.86768 -19.48263,-23.55382 v -0.10671 c 0,-0.42632 -0.26617,-0.85262 -0.53233,-1.4388 2.76803,0 5.85544,-0.10672 9.10254,-0.26645 2.66158,-0.15987 3.88589,-3.51707 1.80988,-5.32891 -16.5017,-13.74857 -27.99965,-37.67541 -33.85508,-52.3832 2.92772,-2.5046 6.54743,-5.75523 10.91239,-10.23151 -10.11393,3.25063 -18.04539,2.13156 -23.68789,-0.15987 2.82125,-1.65197 8.57023,-6.02167 17.35339,-14.81438 -14.69181,4.63616 -25.01869,0.10657 -29.91597,-3.09077 0,-0.15987 -0.15969,-0.26644 -0.26616,-0.58618 4.20529,-0.37302 8.78316,-0.9592 13.57397,-1.65196 -14.42567,-6.8743 -25.33807,-15.82687 -33.85505,-25.205756 -2.28896,-2.930904 -4.63115,-5.915094 -7.18625,-8.952573 -2.768,-3.783528 -5.16343,-7.460478 -7.13297,-11.084137 165.86856,40.659596 151.12352,133.489246 136.91077,171.857426 35.61172,-46.36153 125.57252,-132.95637 249.44163,-35.17083 -8.83637,1.97168 -17.08723,1.70525 -24.22021,0.58618 -20.28112,-6.44798 -34.97293,-15.56043 -37.63449,-17.21238 l 23.10236,19.18408 2.82126,2.9309 c -0.31939,0.26645 -0.58555,0.42632 -0.8517,0.53289 -6.86685,-1.81182 -12.88198,-4.15654 -17.93895,-6.39469 -2.2357,-1.0125 -4.04557,1.9184 -2.2357,3.4638 l 9.95423,8.84599 c -17.08721,7.99337 -35.55846,9.80518 -51.90047,8.846 h -0.15967 c -26.45593,-1.54539 -47.8549,-10.23152 -50.67616,-11.35057 l 37.36834,21.26234 c -38.59265,25.09917 -78.88871,15.82686 -83.67952,14.7078 l 20.70694,9.53876 c -14.58534,4.20984 -28.31902,8.20651 -40.61544,11.7236 49.23891,4.31643 153.19954,33.19914 138.72064,202.01907 -3.19387,-3.51709 -6.44097,-7.24732 -9.63486,-11.45716 -2.5551,-3.78354 -4.89727,-7.14074 -7.45236,-10.49797 -7.39915,-12.09661 -13.41428,-26.21824 -15.80968,-42.63129 -2.50187,4.20983 -4.73759,8.2598 -6.81362,11.93676 -0.31938,-0.26644 -0.31938,-0.4263 -0.42582,-0.4263 -1.86312,-6.02168 -3.08743,-17.63871 7.39912,-29.25574 -13.14812,4.31643 -20.01494,7.8335 -22.94265,9.64533 -0.26616,-3.62366 0.26614,-7.72693 2.07601,-12.20322 -4.20528,-1.11907 -7.133,-2.77103 -8.94287,-4.20983 -1.80984,-1.22565 -2.50184,-2.23814 -2.50184,-2.23814 -14.26599,-11.88347 -34.86649,-31.9202 -43.54317,-51.95691 -1.38402,-2.77102 -5.58929,-3.09076 -6.70715,-0.53289 -1.27754,2.93092 -2.50187,5.70196 -3.51325,8.25982 -0.53232,-0.4263 -0.95818,-0.85262 -1.38402,-1.11906 h -0.1597 c -7.6653,-8.846 -14.95798,-18.65119 -19.16324,-28.29653 -1.11786,-2.82434 -5.32312,-3.25064 -6.54744,-0.69276 -0.95816,2.07827 -1.91635,4.04999 -2.71479,5.96839 31.72581,34.21161 68.29569,105.7789 -60.9498,178.14554 6.17483,-14.12161 15.91616,-32.82611 32.63076,-51.74374 -4.25849,1.59867 -8.14437,3.14406 -11.71086,4.52957 1.0646,-4.63616 3.56649,-11.08414 8.72991,-18.70449 0.0533,-0.15987 0.1597,-0.31972 0.37262,-0.4796 4.52467,-6.71442 11.12533,-14.2282 20.54727,-22.43471 -8.35731,3.35721 -15.38384,6.3947 -21.34573,9.11244 0.15969,-11.19073 2.66157,-27.44391 13.41427,-43.80367 -3.77943,1.59867 -7.18623,3.19734 -10.16715,4.74274 0.69198,-15.7203 -0.42588,-30.37481 -2.23573,-42.84445 -6.60067,3.67694 -14.21276,5.75521 -22.30389,5.75521 -4.04558,0 -7.93147,-0.53287 -11.65766,-1.4921 -68.29568,53.12927 -102.7363,146.75824 -109.70961,231.43467 -8.72991,98.85132 20.17466,196.37042 68.24247,281.89946 h -0.10657 c 0,0 497.76541,0.0534 497.76541,0.0534 z"
     id="path19"
     style="fill:#006a80;stroke-width:5.32601" />
  <path
     d="m 494.67801,134.98135 c 0,0 -0.1597,0.15987 -0.26615,0.15987 0,0 0,-0.15987 -0.1597,-0.26645 0.1597,0.15987 0.26615,0.15987 0.42585,0.15987 z"
     id="path20"
     style="fill:#006a80;stroke-width:5.32601" />
  <path
     d="m 494.67801,134.98135 c 0,0 -0.1597,0.15987 -0.26615,0.15987 0,0 0,-0.15987 -0.1597,-0.26645 0.1597,0.15987 0.26615,0.15987 0.42585,0.15987 z"
     id="path21"
     style="fill:#006a80;stroke-width:5.32601" />
  <path
     d="m 454.64811,244.65037 c 0,0 -0.1597,0.15986 -0.1597,0.26644 -0.26615,-0.15987 -0.692,-0.26644 -1.11785,-0.42631 0.42585,0.15987 0.8517,0.15987 1.27755,0.15987 z"
     id="path22"
     style="fill:#006a80;stroke-width:5.32601" />
  <path
     d="m 454.64811,244.65037 c 0,0 -0.1597,0.15986 -0.1597,0.26644 -0.26615,-0.15987 -0.692,-0.26644 -1.11785,-0.42631 0.42585,0.15987 0.8517,0.15987 1.27755,0.15987 z"
     id="path23"
     style="fill:#006a80;stroke-width:5.32601" />
</svg>
