<?xml version="1.0" encoding="UTF-8"?><svg id="Layer_2" xmlns="http://www.w3.org/2000/svg" xmlns:xlink="http://www.w3.org/1999/xlink" viewBox="0 0 187.69 279.94"><defs><style>.cls-1{fill:url(#linear-gradient);}.cls-2{fill:#a0a0a0;}</style><linearGradient id="linear-gradient" x1="93.85" y1="167.59" x2="93.85" y2="86.94" gradientUnits="userSpaceOnUse"><stop offset=".21" stop-color="#d8d8d8"/><stop offset=".71" stop-color="#dedede"/><stop offset=".94" stop-color="#e4e4e4"/></linearGradient></defs><g id="Layer_1-2"><rect id="sky-background" class="cls-1" x="0" width="187.68" height="168.88"/><path id="mountain-chart" class="cls-2" d="M187.68,140.57c-.68,.33-1.28,.87-1.98,.27-1.53-1.34-3.89-1.47-3.89-1.47,0,0-.51-1.4-2.04-2.17s-1.97-.06-2.55,.51c-.57,.57-.51,2.8-1.85,3.31s-2.93-3.76-3.57-3.31c-.64,.45-.57,.57-1.91,.13-1.34-.45-.83-.25-1.47-.19-.64,.06-1.4-.25-2.36-.51-.96-.25-.7,.7-1.21,.89-.51,.19-.51-1.02-1.59-1.72-1.08-.7-.7,3.63-1.66,3.7-.96,.06-.32-.45-1.08-3.38-.76-2.93-1.66,0-2.61-.19-.96-.19-2.48-.45-3.44-.96-.96-.51-1.78-.25-2.55-.38-.76-.13-.25-.83-1.27-.83s-.89,.76-1.66,1.02c-.76,.25-.64-1.08-1.91-.83-1.27,.25-1.72,1.34-2.48,1.59-.76,.25-.83-.45-2.55-.57s-1.66,1.27-2.54,1.47c-.88,.19-.45-1.15-1.79-2.29s-1.02,.76-2.55,.25-1.15-3.7-1.91-3.38c-.76,.32-1.27,3.44-1.91,3.76s-2.48-3.89-2.87-3.7c-.38,.19-.89,.89-1.34,1.21-.45,.32-.76,.19-2.23,.38-1.47,.19-1.98,0-3.76-.38s-1.21,.57-1.98,.32-.83-2.68-1.91-2.74c-8.41,.51-5.48-1.72-6.75-1.78-1.27-.06-.7,2.8-2.29,2.99-1.59,.19-2.42-3.89-2.99-4.08-.57-.19-.7,1.85-1.53,1.98s-.76-2.68-1.72-2.48c-.96,.19-.51,1.78-2.29,2.04s-3.76-2.29-4.59-3.19c-.83-.89-2.1-.45-3.57-2.23-1.47-1.78-2.68-1.53-4.14-1.02s-2.42-2.04-3.63-2.99c-1.21-.96-.57,.64-1.66,.64s-1.4-1.53-2.8-2.61c-1.4-1.08-1.85-.76-3.25-1.21-1.4-.45-1.66-.25-3.38-1.4s-2.93-2.48-4.14-2.55c-1.21-.06-2.74-4.01-3.63-5.03s-1.34-.06-2.1-.06-2.87-4.84-2.87-4.84c0,0-.25-.57-1.4,.89-1.15,1.47-2.68-4.97-4.91-6.18-2.23-1.21-2.29-3.44-4.33-3.95s-1.66-1.53-2.93-3.82c-1.27-2.29-2.42-.64-2.42-.64l-.89-.13c-.12-.02-.2-.03-.26-.04-.3-.7-1.16-4.88-1.39-5.63-.25-.83-1.53-.25-1.72-.45-.19-.19-8.22-6.88-10.7-7.45-2.48-.57-2.87,1.59-4.33,3.25s-1.72,1.98-2.48,3.76c-.76,1.78-.57,2.48-1.34,5.29-.76,2.8-1.53,3.12-2.04,4.27-.51,1.15-.32,3.31-.64,5.1-.32,1.78-1.72,5.86-2.1,6.82-.38,.96-2.17,13.32-2.36,14.08-.19,.76-2.04,9.05-2.36,10.26-.32,1.21-1.4,.96-1.53,2.1-.13,1.15-1.53,12.61-2.61,15.04-1.08,2.42-2.04,3.63-2.61,6.63-.57,2.99-1.47,4.29-2.8,6.2C.06,157.13,0,159.53,0,159.53H187.68v-18.96ZM42.87,88.78s-.03-.02-.06-.07c.07,.02,.12,.05,.06,.07Z"/><g id="RUM-text"><path d="M19.91,223.61h-5.81v15.35H0v-58.08H28.29c12.28,0,21.4,9.29,21.4,21.41,0,9.04-5.06,16.34-12.61,19.58l15.76,17.09h-19l-13.94-15.35Zm6.39-12.11c5.23,0,9.29-3.57,9.29-9.21s-4.07-9.29-9.29-9.29H14.1v18.5h12.2Z"/><path d="M59.74,215.31v-34.43h14.1v34.6c0,8.46,4.9,12.36,11.78,12.36s11.78-3.9,11.78-12.36v-34.6h14.1v34.43c0,15.35-10.87,24.81-25.89,24.81s-25.89-9.46-25.89-24.81Z"/><path d="M155.24,218.38l22.98-37.5h9.46v58.08h-13.61v-28.13l-18.83,28.96-18.83-28.96v28.13h-13.61v-58.08h9.46l22.98,37.5Z"/></g><g id="ARCHIVE-text"><path d="M20.63,275.37H8.86l-1.41,4H0l12.17-28.31h5.18l12.17,28.31h-7.44l-1.46-4Zm-9.75-5.62h7.72l-3.84-10.68-3.88,10.68Z"/><path d="M42.96,271.89h-2.83v7.48h-6.88v-28.31h13.79c5.99,0,10.43,4.53,10.43,10.43,0,4.41-2.47,7.97-6.15,9.54l7.68,8.33h-9.26l-6.79-7.48Zm3.11-5.9c2.55,0,4.53-1.74,4.53-4.49s-1.98-4.53-4.53-4.53h-5.95v9.02h5.95Z"/><path d="M83.85,261.13c-1.09-2.63-3.56-4.65-7.44-4.65-5.42,0-8.21,3.92-8.21,8.74s2.79,8.74,8.21,8.74c3.88,0,6.35-2.02,7.44-4.65h6.83c-1.33,5.66-6.59,10.64-14.24,10.64-9.38,0-15.13-6.71-15.13-14.72s5.74-14.72,15.13-14.72c7.64,0,12.9,4.97,14.24,10.64h-6.83Z"/><path d="M113.78,251.06h6.88v28.31h-6.88v-11.04h-11.77v11.04h-6.88v-28.31h6.88v10.96h11.77v-10.96Z"/><path d="M126.53,279.37v-28.31h6.88v28.31h-6.88Z"/><path d="M153.14,279.37h-4.93l-11.57-28.31h7.4l6.63,17.96,6.63-17.96h7.4l-11.57,28.31Z"/><path d="M187.68,273.39v5.99h-19.94v-28.31h19.78v5.99h-12.9v4.97h12.54v5.99h-12.54v5.38h13.06Z"/></g><g id="Palm_Tree"><path d="M92.93,25.33s-.03,.03-.05,.03c0,0,0-.03-.03-.05,.03,.03,.05,.03,.08,.03Z"/><path d="M85.18,45.89c.08,.03,.16,.03,.24,.03t-.03,.05c-.05-.03-.13-.05-.21-.08Z"/><path d="M187.69,159.4v9.49H0v-9.49H70.98c-5.88-17.68-8.02-36.74-4.2-55.05,3.77-17.83,12.49-35.86,27.63-46.4-2.56,1.39-5.52,2.98-8.62,4.63,.05-.79,.08-1.68,.08-2.65-2.37,3.99-5.58,5.78-7.99,6.52,.07-1.45,.13-3.16,.13-5.18-.95,2.6-2.03,4.47-3.13,5.78-.03,.05-.05,.08-.08,.11-1.26,1.49-2.52,2.28-3.52,2.68,.02-.82,.05-1.71,.05-2.68-2.92,4.33-6.73,6.59-9.96,7.75,7.38-25.29,23.13-27.34,32.36-26.11-1.56-.53-3.26-1.11-5.05-1.73,.23-.18,.5-.39,.76-.63,.34-.31,.24-.81-.19-.73-1.41,.26-2.7,.31-3.83,.21,.63-.79,1.31-1.69,2.05-2.74,.31-.44-.11-1.1-.63-.92-4.76,1.5-9.02,.92-12.1,0-.42-.13-.78-.26-1.15-.36v-.03c.52-.32,1.08-.74,1.65-1.26-2.73,.6-5.07-.27-6.78-1.34,.37-.27,.76-.61,1.19-.98-.77,.19-1.5,.27-2.21,.27-.29,0-.58-.03-.87-.08-1.29-.16-2.42-.61-3.37-1.13,.98-.55,2-1.32,3.05-2.29-2.13,.32-4.2,.18-6.12-.26-1.79-.42-3.47-1.11-4.97-1.89,26.43-17.25,42.82,6.75,46.66,13.34-.09-.71-.21-1.48-.39-2.33,.49,0,1.05-.03,1.63-.05,.52-.06,.73-.69,.34-1-1.42-1.19-2.63-2.79-3.66-4.42v-.02c0-.08-.05-.16-.1-.27,.52,0,1.1-.02,1.71-.05,.5-.03,.73-.66,.34-1-3.1-2.58-5.26-7.07-6.36-9.83,.55-.47,1.23-1.08,2.05-1.92-1.9,.61-3.39,.4-4.45-.03,.53-.31,1.61-1.13,3.26-2.78-2.76,.87-4.7,.02-5.62-.58,0-.03-.03-.05-.05-.11,.79-.07,1.65-.18,2.55-.31-2.71-1.29-4.76-2.97-6.36-4.73-.43-.55-.87-1.11-1.35-1.68-.52-.71-.97-1.4-1.34-2.08,31.16,7.63,28.39,25.05,25.72,32.25,6.69-8.7,23.59-24.95,46.86-6.6-1.66,.37-3.21,.32-4.55,.11-3.81-1.21-6.57-2.92-7.07-3.23l4.34,3.6,.53,.55c-.06,.05-.11,.08-.16,.1-1.29-.34-2.42-.78-3.37-1.2-.42-.19-.76,.36-.42,.65l1.87,1.66c-3.21,1.5-6.68,1.84-9.75,1.66h-.03c-4.97-.29-8.99-1.92-9.52-2.13l7.02,3.99c-7.25,4.71-14.82,2.97-15.72,2.76l3.89,1.79c-2.74,.79-5.32,1.54-7.63,2.2,9.25,.81,28.78,6.23,26.06,37.91-.6-.66-1.21-1.36-1.81-2.15-.48-.71-.92-1.34-1.4-1.97-1.39-2.27-2.52-4.92-2.97-8-.47,.79-.89,1.55-1.28,2.24-.06-.05-.06-.08-.08-.08-.35-1.13-.58-3.31,1.39-5.49-2.47,.81-3.76,1.47-4.31,1.81-.05-.68,.05-1.45,.39-2.29-.79-.21-1.34-.52-1.68-.79-.34-.23-.47-.42-.47-.42-2.68-2.23-6.55-5.99-8.18-9.75-.26-.52-1.05-.58-1.26-.1-.24,.55-.47,1.07-.66,1.55-.1-.08-.18-.16-.26-.21h-.03c-1.44-1.66-2.81-3.5-3.6-5.31-.21-.53-1-.61-1.23-.13-.18,.39-.36,.76-.51,1.12h0c5.96,6.42,12.83,19.85-11.45,33.43,1.16-2.65,2.99-6.16,6.13-9.71-.8,.3-1.53,.59-2.2,.85,.2-.87,.67-2.08,1.64-3.51,.01-.03,.03-.06,.07-.09,.85-1.26,2.09-2.67,3.86-4.21-1.57,.63-2.89,1.2-4.01,1.71,.03-2.1,.5-5.15,2.52-8.22-.71,.3-1.35,.6-1.91,.89,.13-2.95-.08-5.7-.42-8.04-1.24,.69-2.67,1.08-4.19,1.08-.76,0-1.49-.1-2.19-.28-12.83,9.97-19.3,27.54-20.61,43.43-1.64,18.55,3.79,36.85,12.82,52.9h-.02s93.51,.01,93.51,.01Z"/><path d="M92.93,25.33s-.03,.03-.05,.03c0,0,0-.03-.03-.05,.03,.03,.05,.03,.08,.03Z"/><path d="M92.93,25.33s-.03,.03-.05,.03c0,0,0-.03-.03-.05,.03,.03,.05,.03,.08,.03Z"/><path d="M85.41,45.91s-.03,.03-.03,.05c-.05-.03-.13-.05-.21-.08,.08,.03,.16,.03,.24,.03Z"/><path d="M85.41,45.91s-.03,.03-.03,.05c-.05-.03-.13-.05-.21-.08,.08,.03,.16,.03,.24,.03Z"/></g></g></svg>