<?xml version="1.0" encoding="UTF-8" standalone="no"?>
<!-- Created with Inkscape (http://www.inkscape.org/) -->

<svg
   width="49.659836mm"
   height="49.66mm"
   viewBox="0 0 49.659836 49.66"
   version="1.1"
   id="svg583"
   inkscape:version="1.2.1 (9c6d41e4, 2022-07-14)"
   sodipodi:docname="rum-archive-logo-square.svg"
   xmlns:inkscape="http://www.inkscape.org/namespaces/inkscape"
   xmlns:sodipodi="http://sodipodi.sourceforge.net/DTD/sodipodi-0.dtd"
   xmlns="http://www.w3.org/2000/svg"
   xmlns:svg="http://www.w3.org/2000/svg">
  <sodipodi:namedview
     id="namedview585"
     pagecolor="#ffffff"
     bordercolor="#000000"
     borderopacity="0.25"
     inkscape:showpageshadow="2"
     inkscape:pageopacity="0.0"
     inkscape:pagecheckerboard="0"
     inkscape:deskcolor="#d1d1d1"
     inkscape:document-units="mm"
     showgrid="false"
     inkscape:zoom="1.8266363"
     inkscape:cx="1.0949087"
     inkscape:cy="76.369882"
     inkscape:window-width="1443"
     inkscape:window-height="681"
     inkscape:window-x="233"
     inkscape:window-y="248"
     inkscape:window-maximized="0"
     inkscape:current-layer="layer1" />
  <defs
     id="defs580">
    <linearGradient
       id="a"
       gradientUnits="userSpaceOnUse"
       x1="93.849998"
       x2="93.849998"
       y1="167.59"
       y2="86.940002"
       gradientTransform="matrix(0.26458333,0,0,0.29403754,80.252805,126.15726)">
      <stop
         offset=".21"
         stop-color="#f2d98f"
         id="stop105" />
      <stop
         offset=".33"
         stop-color="#eeda95"
         id="stop107" />
      <stop
         offset=".51"
         stop-color="#e5dfa9"
         id="stop109" />
      <stop
         offset=".72"
         stop-color="#d6e7c8"
         id="stop111" />
      <stop
         offset=".94"
         stop-color="#c2f2f2"
         id="stop113" />
    </linearGradient>
  </defs>
  <g
     inkscape:label="Layer 1"
     inkscape:groupmode="layer"
     id="layer1"
     transform="translate(-80.252805,-126.15726)">
    <path
       d="M 80.252805,126.15726 H 129.9098 v 49.65705 H 80.252805 Z"
       fill="url(#a)"
       id="path116"
       style="fill:url(#a);stroke-width:0.278922" />
    <path
       d="m 129.9098,167.49012 c -0.17991,0.097 -0.33866,0.25581 -0.52387,0.0794 -0.40481,-0.39402 -1.02923,-0.43224 -1.02923,-0.43224 0,0 -0.13494,-0.41166 -0.53975,-0.63807 -0.40481,-0.22641 -0.52123,-0.0177 -0.67469,0.14996 -0.15081,0.1676 -0.13493,0.8233 -0.48948,0.97327 -0.35454,0.14996 -0.77523,-1.10558 -0.94456,-0.97327 -0.16933,0.13232 -0.15081,0.1676 -0.50535,0.0382 -0.35454,-0.13232 -0.21961,-0.0735 -0.38894,-0.0559 -0.16933,0.0177 -0.37042,-0.0735 -0.62442,-0.14996 -0.254,-0.0735 -0.18521,0.20583 -0.32014,0.2617 -0.13494,0.0559 -0.13494,-0.29993 -0.42069,-0.50576 -0.28575,-0.20581 -0.18521,1.06736 -0.43921,1.08794 -0.254,0.0177 -0.0847,-0.13231 -0.28575,-0.99384 -0.20108,-0.86153 -0.43921,0 -0.69056,-0.0559 -0.254,-0.0559 -0.65617,-0.13231 -0.91017,-0.28228 -0.254,-0.14996 -0.47096,-0.0734 -0.67469,-0.11173 -0.20108,-0.0382 -0.0661,-0.24406 -0.33602,-0.24406 -0.26987,0 -0.23548,0.22348 -0.4392,0.29993 -0.20109,0.0735 -0.16934,-0.31756 -0.50536,-0.24406 -0.33602,0.0736 -0.45508,0.39402 -0.65617,0.46752 -0.20108,0.0735 -0.2196,-0.13231 -0.67468,-0.1676 -0.45509,-0.0352 -0.43921,0.37343 -0.67204,0.43224 -0.23284,0.0559 -0.11907,-0.33814 -0.47361,-0.67335 -0.35454,-0.3352 -0.26987,0.22347 -0.67469,0.0736 -0.40481,-0.14996 -0.30427,-1.08794 -0.50535,-0.99384 -0.20108,0.0941 -0.33602,1.01148 -0.50535,1.10557 -0.16934,0.0941 -0.65617,-1.1438 -0.75936,-1.08794 -0.10054,0.0559 -0.23548,0.2617 -0.35454,0.35579 -0.11906,0.0941 -0.20108,0.0559 -0.59002,0.11174 -0.38894,0.0559 -0.52388,0 -0.99483,-0.11174 -0.47096,-0.11174 -0.32015,0.1676 -0.52388,0.0941 -0.20373,-0.0735 -0.2196,-0.78802 -0.50535,-0.80566 -2.22515,0.14996 -1.44992,-0.50574 -1.78594,-0.52338 -0.33602,-0.0177 -0.18521,0.8233 -0.6059,0.87917 -0.42068,0.0559 -0.64029,-1.14381 -0.7911,-1.19968 -0.15081,-0.0559 -0.18521,0.54397 -0.40481,0.5822 -0.21961,0.0382 -0.20109,-0.78802 -0.45509,-0.72921 -0.254,0.0559 -0.13493,0.52339 -0.60589,0.59983 -0.47096,0.0765 -0.99484,-0.67335 -1.21444,-0.93798 -0.2196,-0.26169 -0.55563,-0.13231 -0.94456,-0.6557 -0.38894,-0.52339 -0.70909,-0.44988 -1.09538,-0.29992 -0.38629,0.14996 -0.64029,-0.59984 -0.96044,-0.87917 -0.32014,-0.28228 -0.15081,0.18818 -0.4392,0.18818 -0.2884,0 -0.37042,-0.44987 -0.74084,-0.76743 -0.37041,-0.31756 -0.48948,-0.22347 -0.85989,-0.35579 -0.37042,-0.13232 -0.439211,-0.0735 -0.894294,-0.41165 -0.455084,-0.33814 -0.77523,-0.72922 -1.095375,-0.7498 -0.320146,-0.0177 -0.724959,-1.17909 -0.960438,-1.47901 -0.235479,-0.29992 -0.354542,-0.0177 -0.555625,-0.0177 -0.201083,0 -0.759354,-1.42314 -0.759354,-1.42314 0,0 -0.06615,-0.16761 -0.370417,0.26169 -0.304271,0.43223 -0.709083,-1.46136 -1.299104,-1.81715 -0.590021,-0.35579 -0.605896,-1.0115 -1.145646,-1.16145 -0.53975,-0.14996 -0.439208,-0.44988 -0.775229,-1.12322 -0.336021,-0.67335 -0.640291,-0.18819 -0.640291,-0.18819 l -0.23548,-0.0382 c -0.03175,-0.006 -0.05292,-0.009 -0.06879,-0.0118 -0.07937,-0.20583 -0.306917,-1.43491 -0.367771,-1.65544 -0.06615,-0.24405 -0.404813,-0.0735 -0.455083,-0.13232 -0.05027,-0.0559 -2.174875,-2.02297 -2.831042,-2.19058 -0.656167,-0.1676 -0.759354,0.46752 -1.145646,0.95563 -0.386292,0.4881 -0.455083,0.58218 -0.656167,1.10557 -0.201083,0.52339 -0.150812,0.72922 -0.354541,1.55547 -0.201084,0.8233 -0.404813,0.91739 -0.53975,1.25554 -0.134938,0.33814 -0.08467,0.97326 -0.169334,1.49958 -0.08467,0.52339 -0.455083,1.72306 -0.555625,2.00534 -0.100541,0.28228 -0.574145,3.91658 -0.624416,4.14006 -0.05027,0.22346 -0.53975,2.66103 -0.624417,3.01682 -0.08467,0.35579 -0.370417,0.28227 -0.404812,0.61748 -0.0344,0.33814 -0.404813,3.70781 -0.690563,4.42232 -0.28575,0.71157 -0.53975,1.06736 -0.690562,1.94947 -0.150813,0.87917 -0.388938,1.26142 -0.740834,1.82303 -0.455083,-0.24405 -0.470958,0.46164 -0.470958,0.46164 H 129.9098 Z M 91.595492,152.26191 c 0,0 -0.0079,-0.006 -0.01587,-0.0206 0.01852,0.006 0.03175,0.0147 0.01587,0.0206 z"
       fill="#f2835c"
       id="path118"
       style="stroke-width:0.278922" />
    <path
       d="m 129.91245,173.02684 v 2.79042 H 80.252805 v -2.79042 H 99.03293 c -1.55575,-5.19858 -2.121959,-10.80294 -1.11125,-16.18676 0.997479,-5.24269 3.30465,-10.54419 7.31044,-13.64335 -0.67734,0.40871 -1.4605,0.87623 -2.28071,1.36139 0.0132,-0.23229 0.0212,-0.49398 0.0212,-0.77919 -0.62707,1.17321 -1.47638,1.69954 -2.11403,1.91712 0.0185,-0.42635 0.0344,-0.92915 0.0344,-1.52311 -0.25135,0.7645 -0.5371,1.31435 -0.82815,1.69953 -0.008,0.0147 -0.0132,0.0236 -0.0212,0.0323 -0.333377,0.43812 -0.666752,0.67041 -0.931335,0.78802 0.0053,-0.24111 0.01323,-0.50281 0.01323,-0.78802 -0.772583,1.27318 -1.780646,1.93771 -2.63525,2.27879 1.952625,-7.43621 6.119815,-8.03898 8.561915,-7.67732 -0.41275,-0.15584 -0.86254,-0.32638 -1.33615,-0.50868 0.0609,-0.0529 0.1323,-0.11468 0.20109,-0.18525 0.09,-0.0911 0.0635,-0.23817 -0.0503,-0.21465 -0.37307,0.0765 -0.71438,0.0911 -1.01336,0.0618 0.16669,-0.23229 0.34661,-0.49693 0.5424,-0.80567 0.082,-0.12938 -0.0291,-0.32343 -0.16669,-0.27051 -1.25942,0.44106 -2.38654,0.27051 -3.20146,0 -0.111121,-0.0382 -0.206371,-0.0765 -0.304267,-0.1058 v -0.009 c 0.137584,-0.0941 0.285747,-0.21759 0.436557,-0.37048 -0.722307,0.17642 -1.341432,-0.0794 -1.793869,-0.39401 0.0979,-0.0794 0.201083,-0.17937 0.314854,-0.28816 -0.203729,0.0559 -0.396875,0.0794 -0.584729,0.0794 -0.07673,0 -0.153459,-0.009 -0.230188,-0.0236 -0.341312,-0.047 -0.640291,-0.17937 -0.891646,-0.33226 0.259292,-0.16172 0.529167,-0.38813 0.80698,-0.67335 -0.563563,0.0941 -1.11125,0.0529 -1.61925,-0.0765 -0.473605,-0.1235 -0.918105,-0.32639 -1.31498,-0.55573 6.992938,-5.07216 11.329458,1.98475 12.345458,3.92246 -0.0238,-0.20877 -0.0556,-0.43517 -0.10319,-0.68511 0.12965,0 0.27781,-0.009 0.43127,-0.0147 0.13759,-0.0177 0.19315,-0.20288 0.09,-0.29403 -0.37571,-0.34991 -0.69585,-0.82037 -0.96837,-1.29965 v -0.006 c 0,-0.0236 -0.0132,-0.047 -0.0265,-0.0794 0.13758,0 0.29104,-0.006 0.45244,-0.0147 0.13229,-0.009 0.19314,-0.19406 0.09,-0.29404 -0.8202,-0.75862 -1.3917,-2.07885 -1.68275,-2.89039 0.14552,-0.1382 0.32544,-0.31756 0.5424,-0.56456 -0.50271,0.17937 -0.89694,0.11763 -1.1774,-0.009 0.14023,-0.0911 0.42598,-0.33226 0.86255,-0.81743 -0.73025,0.25582 -1.24355,0.006 -1.48696,-0.17053 0,-0.009 -0.008,-0.0147 -0.0132,-0.0323 0.20902,-0.0206 0.43656,-0.0529 0.67469,-0.0911 -0.71703,-0.37931 -1.25942,-0.87329 -1.68275,-1.3908 -0.11378,-0.16172 -0.23019,-0.32638 -0.35719,-0.49398 -0.13759,-0.20876 -0.25665,-0.41166 -0.35454,-0.6116 8.24441,2.24351 7.51152,7.36564 6.80508,9.48271 1.77006,-2.55812 6.24152,-7.33623 12.39837,-1.94065 -0.4392,0.1088 -0.84931,0.0941 -1.20385,0.0323 -1.00806,-0.35578 -1.73831,-0.85858 -1.8706,-0.94973 l 1.14829,1.05853 0.14023,0.16172 c -0.0159,0.0147 -0.0291,0.0236 -0.0423,0.0294 -0.34131,-0.10002 -0.64029,-0.22935 -0.89164,-0.35284 -0.11113,-0.0559 -0.20109,0.10579 -0.11113,0.19112 l 0.49477,0.48811 c -0.84931,0.44105 -1.76741,0.54102 -2.57968,0.4881 h -0.008 c -1.31498,-0.0852 -2.37861,-0.56455 -2.51883,-0.62631 l 1.85737,1.17321 c -1.91823,1.38492 -3.92112,0.87329 -4.15925,0.81155 l 1.02923,0.52632 c -0.72496,0.2323 -1.40758,0.45282 -2.01877,0.64689 2.44739,0.23817 7.61471,1.83185 6.89504,11.14696 -0.15875,-0.19406 -0.32015,-0.39989 -0.4789,-0.63218 -0.127,-0.20877 -0.24341,-0.39401 -0.37041,-0.57925 -0.36777,-0.66747 -0.66675,-1.44667 -0.78581,-2.35231 -0.12436,0.23229 -0.23548,0.45577 -0.33867,0.65865 -0.0159,-0.0147 -0.0159,-0.0236 -0.0212,-0.0236 -0.0926,-0.33226 -0.15346,-0.97326 0.36777,-1.61426 -0.65352,0.23817 -0.99483,0.43224 -1.14035,0.53221 -0.0132,-0.19995 0.0132,-0.42636 0.10319,-0.67335 -0.20902,-0.0618 -0.35455,-0.1529 -0.4445,-0.23229 -0.09,-0.0677 -0.12436,-0.1235 -0.12436,-0.1235 -0.70908,-0.6557 -1.73302,-1.76128 -2.16429,-2.86686 -0.0688,-0.1529 -0.27781,-0.17054 -0.33337,-0.0294 -0.0635,0.16172 -0.12436,0.31462 -0.17463,0.45576 -0.0265,-0.0236 -0.0476,-0.047 -0.0688,-0.0618 h -0.008 c -0.381,-0.48811 -0.74348,-1.02913 -0.9525,-1.56135 -0.0556,-0.15584 -0.26458,-0.17935 -0.32544,-0.0382 -0.0476,0.11467 -0.0953,0.22347 -0.13493,0.32932 1.57691,1.88772 3.3946,5.83665 -3.02948,9.82968 0.30691,-0.77921 0.7911,-1.81127 1.62189,-2.8551 -0.21166,0.0882 -0.40481,0.17347 -0.58208,0.24992 0.0529,-0.25581 0.17727,-0.61159 0.43392,-1.03207 0.003,-0.009 0.008,-0.0177 0.0185,-0.0265 0.22489,-0.37048 0.55298,-0.78508 1.02129,-1.23789 -0.4154,0.18523 -0.76465,0.35284 -1.06098,0.50279 0.008,-0.61747 0.13229,-1.51429 0.66675,-2.41698 -0.18785,0.0882 -0.35719,0.17642 -0.50535,0.26169 0.0344,-0.86741 -0.0212,-1.67602 -0.11113,-2.36406 -0.32808,0.20289 -0.70644,0.31756 -1.1086,0.31756 -0.20109,0 -0.39423,-0.0295 -0.57944,-0.0824 -3.39461,2.93156 -5.10646,8.0978 -5.45306,12.77006 -0.43392,5.4544 1.00277,10.83528 3.39195,15.55459 h -0.005 c 0,0 24.74119,0.003 24.74119,0.003 z"
       id="path144"
       style="fill:#006a80;fill-opacity:1;stroke-width:0.278922" />
  </g>
</svg>
