<svg width="111" height="61" viewBox="0 0 111 61" fill="none" xmlns="http://www.w3.org/2000/svg">
<path d="M30.8334 0L37.0001 6.1L30.8334 12.2L24.6667 6.1L30.8334 0Z" fill="#9EB5D3"/>
<path d="M43.1667 12.1992L49.3333 18.2992L43.1667 24.3992L37 18.2992L43.1667 12.1992Z" fill="#9EB5D3"/>
<path d="M92.4999 12.1992L98.6666 18.2992L92.4999 24.3992L86.3333 18.2992L92.4999 12.1992Z" fill="#9EB5D3"/>
<path d="M104.833 24.3984L111 30.4984L104.833 36.5984L98.6667 30.4984L104.833 24.3984Z" fill="#9EB5D3"/>
<path d="M92.4999 36.6016L98.6666 42.7016L92.4999 48.8016L86.3333 42.7016L92.4999 36.6016Z" fill="#9EB5D3"/>
<path d="M80.1667 48.8008L86.3333 54.9008L80.1667 61.0008L74 54.9008L80.1667 48.8008Z" fill="#9EB5D3"/>
<path d="M67.8334 36.6016L74.0001 42.7016L67.8334 48.8016L61.6667 42.7016L67.8334 36.6016Z" fill="#9EB5D3"/>
<path d="M18.4999 12.1992L24.6666 18.2992L18.4999 24.3992L12.3333 18.2992L18.4999 12.1992Z" fill="#9EB5D3"/>
<path d="M80.1667 0L86.3333 6.1L30.8333 61L0 30.5L6.16667 24.4L30.8333 48.8L80.1667 0Z" fill="#1964CD"/>
</svg>
