<svg xmlns="http://www.w3.org/2000/svg" xmlns:xlink="http://www.w3.org/1999/xlink" version="1.1" style="fill:#0B99CB" viewBox="0 0 68 68">
  <path d="M3.39289436,33.720625 C3.39289436,50.753125 17.2590824,64.610625 34.3035119,64.610625 C51.3466906,64.610625 65.2128787,50.753125 65.2128787,33.720625 C65.2128787,16.686875 51.3466906,2.829375 34.3035119,2.829375 C17.2590824,2.829375 3.39289436,16.686875 3.39289436,33.720625 Z M0.706210972,33.720625 C0.706210972,15.205625 15.775653,0.144375 34.3035119,0.144375 C42.7150732,0.144375 50.414653,3.24951405 56.3146214,8.37319455 C63.4085573,14.5337465 67.9008129,23.6124834 67.9008129,33.720625 C67.9008129,52.235625 52.8288693,67.296875 34.3035119,67.296875 C15.775653,67.296875 0.706210972,52.235625 0.706210972,33.720625 Z" id="Fill-1" />
  <path d="M20.9154738,32.0796982 L26.583044,14.4832511 C26.76882,13.9044513 27.3084108,13.5123611 27.9161506,13.5123611 L28.5659,13.5123611 C29.1745733,13.5123611 29.7132306,13.9044513 29.8990066,14.4832511 L40.8513923,48.4905392 L45.8244027,33.0524552 C46.0101788,32.4736554 46.548836,32.0815653 47.1565758,32.0815653 L60.9488146,32.0815653 C60.1599665,18.1819684 48.6418507,7.15209828 34.5443417,7.15209828 C20.4477662,7.15209828 8.93058399,18.1810349 8.14080235,32.0796982 L20.9154738,32.0796982 Z" id="Fill-9" />
  <path d="M48.1771305,34.8816493 L42.5095603,52.4780964 C42.3228507,53.0568962 41.7841935,53.4489863 41.1764537,53.4489863 L40.5267043,53.4489863 C39.918031,53.4489863 39.3793737,53.0568962 39.1935977,52.4780964 L28.241212,18.4708082 L23.2682016,33.9088922 C23.0824255,34.487692 22.5437683,34.8797822 21.9360285,34.8797822 L8.12698584,34.8797822 C8.79353914,48.895139 20.3648672,60.0519717 34.5445284,60.0519717 C48.7241897,60.0519717 60.2955177,48.8960725 60.9630045,34.8816493 L48.1771305,34.8816493 Z" id="Fill-11" />
</svg>
