<?xml version="1.0" encoding="UTF-8" standalone="no"?>
<svg
   viewBox="0 0 1200 629.99999"
   version="1.1"
   id="svg23"
   sodipodi:docname="rum-archive-banner-facebook.svg"
   width="1200"
   height="630"
   inkscape:version="1.3 (0e150ed, 2023-07-21)"
   inkscape:export-filename="rum-archive-banner-1200x600.png"
   inkscape:export-xdpi="96"
   inkscape:export-ydpi="96"
   xmlns:inkscape="http://www.inkscape.org/namespaces/inkscape"
   xmlns:sodipodi="http://sodipodi.sourceforge.net/DTD/sodipodi-0.dtd"
   xmlns="http://www.w3.org/2000/svg"
   xmlns:svg="http://www.w3.org/2000/svg">
  <defs
     id="defs23" />
  <sodipodi:namedview
     id="namedview23"
     pagecolor="#ffffff"
     bordercolor="#000000"
     borderopacity="0.25"
     inkscape:showpageshadow="2"
     inkscape:pageopacity="0.0"
     inkscape:pagecheckerboard="0"
     inkscape:deskcolor="#d1d1d1"
     inkscape:zoom="0.5935549"
     inkscape:cx="630.94416"
     inkscape:cy="238.39412"
     inkscape:window-width="1792"
     inkscape:window-height="1010"
     inkscape:window-x="0"
     inkscape:window-y="25"
     inkscape:window-maximized="0"
     inkscape:current-layer="svg23"
     inkscape:export-bgcolor="#fffffff0" />
  <linearGradient
     id="a"
     gradientUnits="userSpaceOnUse"
     x1="93.849998"
     x2="93.849998"
     y1="167.59"
     y2="86.940002"
     gradientTransform="scale(3.7261873,3.7302385)">
    <stop
       offset=".21"
       stop-color="#f2d98f"
       id="stop1" />
    <stop
       offset=".33"
       stop-color="#eeda95"
       id="stop2" />
    <stop
       offset=".51"
       stop-color="#e5dfa9"
       id="stop3" />
    <stop
       offset=".72"
       stop-color="#d6e7c8"
       id="stop4" />
    <stop
       offset=".94"
       stop-color="#c2f2f2"
       id="stop5" />
  </linearGradient>
  <path
     d="M 0,0 H 699.33087 V 629.9627 H 0 Z"
     fill="url(#a)"
     id="path5"
     style="fill:url(#a);stroke-width:3.72821" />
  <path
     d="m 699.33087,524.35965 c -2.53381,1.23098 -4.76951,3.24529 -7.37786,1.00716 -5.70106,-4.99852 -14.49486,-5.48346 -14.49486,-5.48346 0,0 -1.90036,-5.22233 -7.60143,-8.09462 -5.70105,-2.87228 -7.34058,-0.22381 -9.50178,1.90243 -2.12392,2.12623 -1.90034,10.44467 -6.89344,12.34709 -4.99309,1.90242 -10.91773,-14.02569 -13.30249,-12.34709 -2.38476,1.67861 -2.12393,2.12623 -7.11701,0.48494 -4.99309,-1.67862 -3.09275,-0.93256 -5.47751,-0.70875 -2.38475,0.22381 -5.21665,-0.93256 -8.79379,-1.90243 -3.57714,-0.93255 -2.60833,2.61118 -4.50869,3.31992 -1.90036,0.70875 -1.90036,-3.80484 -5.92463,-6.41602 -4.0243,-2.61116 -2.60833,13.54077 -6.18548,13.80189 -3.57714,0.22381 -1.19238,-1.67861 -4.02428,-12.60821 -2.8319,-10.92959 -6.18547,0 -9.72534,-0.70874 -3.57714,-0.70875 -9.24096,-1.67861 -12.81809,-3.58103 -3.57714,-1.90242 -6.63262,-0.93256 -9.50179,-1.41749 -2.8319,-0.48493 -0.93154,-3.09609 -4.73225,-3.09609 -3.80071,0 -3.31631,2.83496 -6.18548,3.80483 -2.8319,0.93257 -2.38476,-4.02865 -7.11701,-3.0961 -4.73227,0.93256 -6.40904,4.99852 -9.24094,5.93109 -2.83191,0.93255 -3.09274,-1.67862 -9.50179,-2.12624 -6.40904,-0.44763 -6.18547,4.73741 -9.46451,5.48345 -3.27904,0.70874 -1.67678,-4.28978 -6.66988,-8.54225 -4.99309,-4.25247 -3.80071,2.83499 -9.50177,0.93256 -5.70107,-1.90242 -4.28512,-13.80187 -7.11702,-12.6082 -2.83191,1.19367 -4.73225,12.83202 -7.11702,14.02569 -2.38476,1.19368 -9.24094,-14.51062 -10.69416,-13.80187 -1.41595,0.70875 -3.31631,3.31991 -4.99309,4.51358 -1.67679,1.19367 -2.8319,0.70875 -8.3094,1.4175 -5.47749,0.70874 -7.37785,0 -14.01047,-1.4175 -6.63261,-1.41749 -4.50868,2.12624 -7.37784,1.19367 -2.86917,-0.93255 -3.09274,-9.99703 -7.11703,-10.22085 -31.33723,1.90242 -20.4195,-6.41601 -25.15176,-6.63982 -4.73226,-0.22382 -2.60833,10.44467 -8.53296,11.15342 -5.92464,0.70875 -9.01738,-14.51064 -11.14131,-15.21939 -2.12392,-0.70874 -2.60833,6.90095 -5.70106,7.38588 -3.09273,0.48493 -2.83191,-9.99704 -6.40904,-9.25099 -3.57714,0.70875 -1.90037,6.63982 -8.53298,7.60968 -6.63261,0.96987 -14.01046,-8.54224 -17.1032,-11.89946 -3.09273,-3.31991 -7.82498,-1.67861 -13.30249,-8.31843 -5.47749,-6.63981 -9.98618,-5.70727 -15.42641,-3.80485 -5.44024,1.90243 -9.01738,-7.60968 -13.52607,-11.1534 -4.50868,-3.58104 -2.12392,2.38735 -6.18546,2.38735 -4.06155,0 -5.21667,-5.70727 -10.43333,-9.73593 -5.21667,-4.02865 -6.89345,-2.83497 -12.11011,-4.51359 -5.21666,-1.67861 -6.18547,-0.93255 -12.59451,-5.22233 -6.40905,-4.28977 -10.91774,-9.25099 -15.42642,-9.51211 -4.50869,-0.2238 -10.20976,-14.95825 -13.52607,-18.7631 -3.3163,-3.80484 -4.99308,-0.22381 -7.82499,-0.22381 -2.8319,0 -10.69415,-18.05436 -10.69415,-18.05436 0,0 -0.93154,-2.12622 -5.21666,3.31992 -4.28513,5.48344 -9.98619,-18.53929 -18.29559,-23.05288 -8.3094,-4.51358 -8.53296,-12.83202 -16.1344,-14.73444 -7.60141,-1.90242 -6.18546,-5.70728 -10.91772,-14.24952 -4.73225,-8.54224 -9.01738,-2.38734 -9.01738,-2.38734 l -3.3163,-0.48494 c -0.44715,-0.0747 -0.74523,-0.1119 -0.9688,-0.1492 -1.11786,-2.61117 -4.32239,-18.20358 -5.17941,-21.00125 -0.93154,-3.09609 -5.70106,-0.93256 -6.40904,-1.67861 -0.70798,-0.70874 -30.62926,-25.66404 -39.87021,-27.79028 -9.240941,-2.12623 -10.694154,5.93108 -16.134388,12.12328 -5.440233,6.1922 -6.409043,7.38587 -9.240945,14.0257 -2.831902,6.63982 -2.123927,9.25098 -4.993091,19.73297 -2.831902,10.44466 -5.701067,11.63833 -7.601422,15.92811 -1.900355,4.28978 -1.19238,12.34708 -2.38476,19.02421 -1.19238,6.63982 -6.409044,21.85921 -7.824994,25.44023 -1.415951,3.58103 -8.085828,49.68678 -8.793804,52.52177 -0.707975,2.83498 -7.601422,33.75865 -8.793801,38.27224 -1.192381,4.5136 -5.216664,3.58103 -5.701068,7.8335 -0.484404,4.28977 -5.701067,47.03832 -9.725349,56.10279 -4.024283,9.02718 -7.601423,13.54077 -9.725349,24.73149 C 14.942012,577.25444 11.588443,582.10375 6.6326137,589.2285 0.22357125,586.1324 0,595.08497 0,595.08497 H 699.33087 Z M 159.74166,331.17058 c 0,0 -0.11179,-0.0747 -0.22357,-0.26111 0.26083,0.0747 0.44713,0.18652 0.22357,0.26111 z"
     fill="#f2835c"
     id="path6"
     style="stroke-width:3.72821" />
  <path
     d="m 763.12435,297.82776 h -14.66153 v 38.73543 H 712.882 V 190 h 71.38906 c 30.98802,0 54.0022,23.44311 54.0022,54.02743 0,22.81231 -12.76883,41.23336 -31.82099,49.40937 l 39.76992,43.12639 h -47.94594 l -35.17712,-38.73543 z m 16.12497,-30.55907 c 13.19775,0 23.44277,-9.00901 23.44277,-23.24126 0,-14.23226 -10.27025,-23.44312 -23.44277,-23.44312 h -30.7865 v 46.68438 z"
     id="path7"
     style="fill:#006a80;stroke-width:2.52349" />
  <path
     d="M 863.63396,276.88291 V 190 h 35.58084 v 87.31185 c 0,21.34856 12.36513,31.1902 29.72643,31.1902 17.36164,0 29.72646,-9.84164 29.72646,-31.1902 V 190 h 35.58111 v 86.88291 c 0,38.73542 -27.43036,62.60748 -65.3328,62.60748 -37.90245,0 -65.33249,-23.87206 -65.33249,-62.60748 z"
     id="path8"
     style="fill:#006a80;stroke-width:2.52349" />
  <path
     d="M 1104.6252,284.62999 1162.6144,190 h 23.8719 v 146.56319 h -34.3444 v -70.98536 l -47.5167,73.07959 -47.5169,-73.07959 v 70.98536 h -34.3445 V 190 h 23.872 z"
     id="path9"
     style="fill:#006a80;stroke-width:2.52349" />
  <path
     d="m 764.94104,428.44261 h -29.70123 l -3.55798,10.09364 H 712.882 l 30.71047,-71.4392 h 13.07161 l 30.7108,71.4392 h -18.77461 l -3.68446,-10.09364 z m -24.60377,-14.18213 h 19.48109 l -9.68992,-26.95063 z"
     id="path10"
     style="fill:#006a80;stroke-width:2.52349" />
  <path
     d="m 821.29009,419.66071 h -7.14119 v 18.87554 h -17.36165 v -71.4392 h 34.79864 c 15.1157,0 26.31984,11.43122 26.31984,26.31984 0,11.12844 -6.23286,20.11188 -15.5194,24.0739 l 19.38017,21.02023 h -23.36709 l -17.13455,-18.87554 z m 7.84801,-14.88829 c 6.43505,0 11.43123,-4.39095 11.43123,-11.3303 0,-6.93968 -4.99618,-11.43155 -11.43123,-11.43155 h -15.01443 v 22.76185 z"
     id="path11"
     style="fill:#006a80;stroke-width:2.52349" />
  <path
     d="m 924.47492,392.50821 c -2.75059,-6.63656 -8.98376,-11.734 -18.7746,-11.734 -13.67719,0 -20.71779,9.89211 -20.71779,22.05505 0,12.16328 7.0406,22.05506 20.71779,22.05506 9.79084,0 16.02401,-5.09745 18.7746,-11.73402 h 17.23512 C 938.35394,427.43303 925.08046,440 905.77599,440 c -23.67018,0 -38.18,-16.93237 -38.18,-37.14551 0,-20.21281 14.48457,-37.14552 38.18,-37.14552 19.27924,0 32.5527,12.54176 35.93405,26.84972 h -17.23512 z"
     id="path12"
     style="fill:#006a80;stroke-width:2.52349" />
  <path
     d="m 1000.0023,367.09705 h 17.3613 v 71.4392 h -17.3613 v -27.85898 h -29.70126 v 27.85898 h -17.36159 v -71.4392 h 17.36159 v 27.65712 h 29.70126 z"
     id="path13"
     style="fill:#006a80;stroke-width:2.52349" />
  <path
     d="m 1032.1766,438.53625 v -71.4392 h 17.3611 v 71.4392 z"
     id="path14"
     style="fill:#006a80;stroke-width:2.52349" />
  <path
     d="m 1099.3261,438.53625 h -12.441 l -29.1965,-71.4392 h 18.6737 l 16.7303,45.32152 16.7311,-45.32152 h 18.6737 l -29.1967,71.4392 z"
     id="path15"
     style="fill:#006a80;stroke-width:2.52349" />
  <path
     d="m 1186.4863,423.4461 v 15.11538 h -50.3179 v -71.4392 h 49.9143 v 15.11568 h -32.5526 v 12.54144 h 31.6443 v 15.11569 h -31.6443 v 13.57624 h 32.9562 z"
     id="path16"
     style="fill:#006a80;stroke-width:2.52349" />
  <path
     d="m 346.27461,94.486944 c 0,0 -0.11179,0.111908 -0.18631,0.111908 0,0 0,-0.111908 -0.11179,-0.186512 0.11179,0.111908 0.18631,0.111908 0.2981,0.111908 z"
     id="path17"
     style="fill:#006a80;stroke-width:3.72821" />
  <path
     d="m 317.39666,171.18065 c 0.29808,0.11191 0.59619,0.11191 0.89427,0.11191 q 0,0 -0.11178,0.18651 c -0.1863,-0.11191 -0.48441,-0.18651 -0.78249,-0.29842 z"
     id="path18"
     style="fill:#006a80;stroke-width:3.72821" />
  <path
     d="M 699.36813,594.60004 V 630 H 0 v -35.39996 h 264.48479 c -21.90998,-65.95062 -29.88402,-137.04897 -15.64998,-205.34965 14.04773,-66.51014 46.54007,-133.76634 102.95455,-173.08307 -9.53904,5.18504 -20.56855,11.11612 -32.11974,17.27101 0.18631,-2.94688 0.2981,-6.2668 0.2981,-9.88513 -8.83107,14.88366 -20.79212,21.56077 -29.77224,24.32116 0.26083,-5.40884 0.48441,-11.78755 0.48441,-19.32265 -3.53988,9.69863 -7.56417,16.67418 -11.66297,21.56079 -0.11178,0.18651 -0.1863,0.29842 -0.2981,0.41032 -4.695,5.55806 -9.38999,8.50495 -13.11616,9.99705 0.0745,-3.0588 0.18629,-6.37871 0.18629,-9.99705 -10.88047,16.15194 -25.07724,24.58228 -37.11283,28.90935 27.49928,-94.33773 86.18673,-101.98471 120.57944,-97.39653 -5.81286,-1.97702 -12.14737,-4.14056 -18.81725,-6.45331 0.85702,-0.67145 1.86309,-1.45479 2.8319,-2.35004 1.26691,-1.15638 0.89428,-3.0215 -0.70797,-2.72307 -5.25393,0.96985 -10.0607,1.15636 -14.27131,0.78334 2.34751,-2.9469 4.88131,-6.30411 7.63869,-10.22085 1.15512,-1.64132 -0.40988,-4.10327 -2.3475,-3.43183 -17.73665,5.59537 -33.6102,3.43183 -45.08686,0 -1.56501,-0.48493 -2.90643,-0.96985 -4.28512,-1.34289 v -0.11191 c 1.93761,-1.19367 4.02429,-2.76037 6.14821,-4.70009 -10.17249,2.23815 -18.89177,-1.00716 -25.26356,-4.99852 1.37869,-1.00716 2.83191,-2.27545 4.43417,-3.65563 -2.86917,0.70875 -5.58928,1.00716 -8.23488,1.00716 -1.08058,0 -2.16119,-0.1119 -3.24178,-0.29841 -4.80678,-0.59684 -9.01737,-2.27546 -12.55725,-4.21517 3.65167,-2.05164 7.45237,-4.92392 11.36487,-8.54225 -7.93678,1.19367 -15.64998,0.67144 -22.80426,-0.96986 -6.66989,-1.56671 -12.92987,-4.14057 -18.51916,-7.05016 98.48314,-64.346614 159.55536,25.17911 173.86392,49.76139 -0.33536,-2.64848 -0.78251,-5.52076 -1.45321,-8.69146 1.82582,0 3.91248,-0.11191 6.07367,-0.18651 1.93762,-0.22381 2.72012,-2.57386 1.26691,-3.73023 -5.29118,-4.43899 -9.79987,-10.40737 -13.63784,-16.48767 v -0.0747 c 0,-0.29842 -0.18632,-0.59683 -0.37263,-1.00716 1.93762,0 4.09881,-0.0747 6.37178,-0.18651 1.8631,-0.11191 2.72012,-2.46195 1.26691,-3.73024 -11.55119,-9.624 -19.59975,-26.37279 -23.69855,-36.66824 2.0494,-1.75322 4.5832,-4.028661 7.63867,-7.16206 -7.07975,2.275445 -12.63177,1.492095 -16.58152,-0.111908 1.97487,-1.156374 5.99916,-4.21517 12.14737,-10.370064 -10.28427,3.245309 -17.51308,0.0746 -20.94118,-2.163538 0,-0.111907 -0.11178,-0.186511 -0.18631,-0.410326 2.9437,-0.261117 6.14821,-0.671443 9.50178,-1.156374 -10.09797,-4.812007 -17.73665,-11.078808 -23.69854,-17.644028 -1.60227,-2.051633 -3.2418,-4.140566 -5.03037,-6.266801 -1.9376,-2.64847 -3.6144,-5.222335 -4.99308,-7.758896 116.10799,28.46172 105.78646,93.442475 95.83754,120.300195 24.9282,-32.45307 87.90076,-93.069454 174.60914,-24.61958 -6.18546,1.38018 -11.96106,1.19368 -16.95415,0.41033 -14.19678,-4.51359 -24.48105,-10.8923 -26.34414,-12.04867 l 16.17165,13.42886 1.97488,2.05163 c -0.22357,0.18651 -0.40988,0.29842 -0.59619,0.37302 -4.80679,-1.26827 -9.01738,-2.90958 -12.55726,-4.47628 -1.56499,-0.70875 -2.8319,1.34288 -1.56499,2.42466 l 6.96796,6.19219 c -11.96105,5.59536 -24.89092,6.86363 -36.33033,6.1922 h -0.11177 c -18.51915,-1.08177 -33.49843,-7.16206 -35.47331,-7.9454 l 26.15784,14.88364 c -27.01486,17.56942 -55.2221,11.0788 -58.57567,10.29546 l 14.49486,6.67713 c -10.20974,2.94689 -19.82331,5.74456 -28.43081,8.20652 34.46724,3.0215 107.23968,23.2394 97.10445,141.41335 -2.23571,-2.46196 -4.50868,-5.07312 -6.7444,-8.02001 -1.78857,-2.64848 -3.42809,-4.99852 -5.21665,-7.34858 -5.17941,-8.46763 -9.39,-18.35277 -11.06678,-29.8419 -1.75131,2.94688 -3.31631,5.78186 -4.76953,8.35573 -0.22357,-0.18651 -0.22357,-0.29841 -0.29808,-0.29841 -1.30418,-4.21518 -2.1612,-12.3471 5.17939,-20.47902 -9.20369,3.0215 -14.01046,5.48345 -16.05986,6.75173 -0.18631,-2.53656 0.1863,-5.40885 1.45321,-8.54225 -2.9437,-0.78335 -4.9931,-1.93972 -6.26001,-2.94688 -1.26689,-0.85796 -1.75129,-1.5667 -1.75129,-1.5667 -9.98619,-8.31843 -24.40654,-22.34414 -30.48022,-36.36984 -0.96881,-1.93971 -3.9125,-2.16353 -4.695,-0.37302 -0.89428,2.05164 -1.75131,3.99137 -2.45928,5.78187 -0.37262,-0.29841 -0.67072,-0.59683 -0.96881,-0.78334 h -0.11179 c -5.36571,-6.1922 -10.47059,-13.05583 -13.41427,-19.80757 -0.7825,-1.97704 -3.72618,-2.27545 -4.58321,-0.48493 -0.67071,1.45479 -1.34144,2.83499 -1.90035,4.17787 22.20807,23.94813 47.80698,74.04523 -42.66486,124.70188 4.32238,-9.88513 11.14131,-22.97828 22.84153,-36.22062 -2.98094,1.11907 -5.70106,2.20084 -8.1976,3.1707 0.74522,-3.24531 2.49654,-7.7589 6.11094,-13.09314 0.0373,-0.11191 0.11179,-0.22381 0.26083,-0.33572 3.16727,-4.7001 7.78773,-9.95974 14.38309,-15.7043 -5.85012,2.35005 -10.76869,4.47629 -14.94201,6.37871 0.11178,-7.83351 1.8631,-19.21074 9.38999,-30.66257 -2.6456,1.11907 -5.03036,2.23814 -7.11701,3.31992 0.48439,-11.00421 -0.29811,-21.26237 -1.56501,-29.99112 -4.62047,2.57386 -9.94893,4.02865 -15.61272,4.02865 -2.83191,0 -5.55203,-0.37301 -8.16036,-1.04447 -47.80698,37.19049 -71.91541,102.73077 -76.79673,162.00427 -6.11094,69.19592 14.12226,137.45929 47.76973,197.32962 h -0.0746 c 0,0 348.43579,0.0374 348.43579,0.0374 z"
     id="path19"
     style="fill:#006a80;stroke-width:3.72821" />
  <path
     d="m 346.27461,94.486944 c 0,0 -0.11179,0.111908 -0.18631,0.111908 0,0 0,-0.111908 -0.11179,-0.186512 0.11179,0.111908 0.18631,0.111908 0.2981,0.111908 z"
     id="path20"
     style="fill:#006a80;stroke-width:3.72821" />
  <path
     d="m 346.27461,94.486944 c 0,0 -0.11179,0.111908 -0.18631,0.111908 0,0 0,-0.111908 -0.11179,-0.186512 0.11179,0.111908 0.18631,0.111908 0.2981,0.111908 z"
     id="path21"
     style="fill:#006a80;stroke-width:3.72821" />
  <path
     d="m 318.25368,171.25526 c 0,0 -0.11179,0.1119 -0.11179,0.18651 -0.18631,-0.11191 -0.4844,-0.18651 -0.7825,-0.29842 0.2981,0.11191 0.59619,0.11191 0.89429,0.11191 z"
     id="path22"
     style="fill:#006a80;stroke-width:3.72821" />
  <path
     d="m 318.25368,171.25526 c 0,0 -0.11179,0.1119 -0.11179,0.18651 -0.18631,-0.11191 -0.4844,-0.18651 -0.7825,-0.29842 0.2981,0.11191 0.59619,0.11191 0.89429,0.11191 z"
     id="path23"
     style="fill:#006a80;stroke-width:3.72821" />
</svg>
